<?xml version="1.0" encoding="UTF-8"?>
<!-- Generated by Pixelmator Pro Trial 3.5.8 -->
<svg width="417" height="461" viewBox="0 0 417 461" xmlns="http://www.w3.org/2000/svg">
    <path id="Path-copy" fill="#cc0000" stroke="none" d="M 3.195302 401.408997 C 3.195302 417.754425 1.980997 433.298798 0.156361 448.245575 C 0.156361 448.245575 28.504984 460.401337 82.57653 460.401337 C 167.628754 460.401337 234.847855 423.132965 308.964996 423.132965 C 372.954407 423.132965 415.474182 448.245575 415.474182 448.245575 L 415.474182 354.375336 C 415.474182 354.375336 379.629913 329.262756 310.586182 329.262756 C 233.233032 329.262756 172.479614 366.531097 91.686996 366.531097 C 32.758228 366.531097 -0.040726 354.375336 -0.040726 354.375336 C 1.777553 369.322083 2.991859 384.866455 2.991859 401.211914 Z M 3.195302 234.397247 C 3.195302 250.742676 1.980997 266.287048 0.156361 281.233826 C 0.156361 281.233826 28.504984 293.389587 82.57653 293.389587 C 167.628754 293.389587 234.847855 256.121216 308.964996 256.121216 C 372.954407 256.121216 415.474182 281.233826 415.474182 281.233826 L 415.474182 187.363586 C 415.474182 187.363586 379.629913 162.250977 310.586182 162.250977 C 233.233032 162.250977 172.479614 199.519348 91.686996 199.519348 C 32.758228 199.519348 -0.040726 187.363586 -0.040726 187.363586 C 1.777553 202.310333 2.991859 217.854721 2.991859 234.200165 Z M 3.195302 73.352844 C 3.195302 89.698303 1.980997 105.242676 0.156361 120.189423 C 0.156361 120.189423 28.504984 132.345215 82.57653 132.345215 C 167.628754 132.345215 234.847855 95.076843 308.964996 95.076843 C 372.954407 95.076843 415.474182 120.189423 415.474182 120.189423 L 415.474182 26.319183 C 415.474182 26.319183 379.629913 1.206604 310.586182 1.206604 C 233.233032 1.206604 172.479614 38.474976 91.686996 38.474976 C 32.758228 38.474976 -0.040726 26.319183 -0.040726 26.319183 C 1.777553 41.265961 2.991859 56.810333 2.991859 73.155762 Z M 3.195302 73.352844"/>
</svg>
