<?xml version="1.0" encoding="UTF-8"?>
<!-- Generated by Pixelmator Pro Trial 3.5.8 -->
<svg width="1240" height="698" viewBox="0 0 1240 698" xmlns="http://www.w3.org/2000/svg">
    <g id="Group">
        <path id="BIKESH-copy" fill="#004d81" fill-rule="evenodd" stroke="none" d="M 1061.328979 274.833252 C 1061.328979 274.833252 1098.876953 274.833252 1098.876953 274.833252 C 1098.876953 274.833252 1098.876953 89.802979 1098.876953 89.802979 C 1098.876953 89.802979 1061.328979 89.802979 1061.328979 89.802979 C 1061.328979 89.802979 1061.328979 163.092529 1061.328979 163.092529 C 1061.328979 163.092529 979.910522 163.092529 979.910522 163.092529 C 979.910522 163.092529 979.910522 89.802979 979.910522 89.802979 C 979.910522 89.802979 942.491577 89.802979 942.491577 89.802979 C 942.491577 89.802979 942.491577 274.833252 942.491577 274.833252 C 942.491577 274.833252 979.910522 274.833252 979.910522 274.833252 C 979.910522 274.833252 979.910522 196.89859 979.910522 196.89859 C 979.910522 196.89859 1061.328979 196.89859 1061.328979 196.89859 C 1061.328979 196.89859 1061.328979 274.833252 1061.328979 274.833252 Z M 761.750183 245.114746 C 765.492065 249.114716 769.750122 252.985657 774.782288 256.469482 C 779.685486 259.953308 785.362854 263.179077 791.685364 266.017761 C 798.007874 268.856445 804.975525 271.049957 812.846436 272.598328 C 820.588257 274.146698 828.975281 274.920898 838.136475 274.920898 C 847.16864 274.920898 855.813721 273.630585 864.200684 271.049957 C 872.587708 268.598389 879.942444 264.727448 886.264954 259.695251 C 892.587463 254.663055 897.748718 248.598602 901.619629 241.501892 C 905.490601 234.405212 907.426025 226.147217 907.426025 216.856995 C 907.426025 206.663574 905.619629 198.147522 901.877686 191.566956 C 898.135803 184.986389 893.361694 179.696106 887.42627 175.567139 C 881.361816 171.567139 874.78125 168.470398 867.426453 166.276917 C 860.071716 164.212402 852.71698 162.535034 845.362183 161.115662 C 845.362183 161.115662 842.39447 160.599548 842.39447 160.599548 C 836.84613 159.438293 831.942993 158.406006 827.42688 157.244751 C 822.910828 156.083435 819.168945 154.664124 815.943176 152.986694 C 812.717407 151.309326 810.265808 149.244812 808.588379 146.664185 C 806.781982 144.083618 805.878723 140.857849 805.878723 136.986877 C 805.878723 131.051453 808.588379 126.277344 814.136719 122.535461 C 819.55603 118.793518 827.168823 116.987122 836.84613 116.987122 C 845.233154 116.987122 853.49115 118.535461 861.491028 121.76123 C 869.361938 124.987 875.942505 129.374084 880.974731 134.922424 C 880.974731 134.922424 905.877686 111.696838 905.877686 111.696838 C 898.651917 103.567871 889.232666 97.116333 877.490906 92.084167 C 865.749084 87.180969 852.329834 84.72937 837.362305 84.72937 C 824.717285 84.72937 814.00769 86.406799 805.104553 89.890625 C 796.201416 93.374451 788.84668 97.761536 783.29834 103.051758 C 777.620972 108.471069 773.492004 114.406494 770.911377 120.729004 C 768.33075 127.180542 767.040466 133.374023 767.040466 139.18042 C 767.040466 149.244812 768.975952 157.502808 772.846863 164.083374 C 776.717773 170.66394 781.75 176.083252 787.943481 180.341248 C 794.136963 184.599304 801.104614 187.825043 808.717407 190.018585 C 816.330261 192.212097 824.072083 194.018524 831.813965 195.437866 C 831.813965 195.437866 837.620361 196.470123 837.620361 196.470123 C 848.329895 198.405579 856.200806 201.115234 861.232971 204.59906 C 866.136169 208.082916 868.587769 213.115112 868.587769 219.695679 C 868.587769 226.018188 865.749084 231.4375 860.200745 235.824524 C 854.523376 240.340607 846.39447 242.534149 835.813904 242.534149 C 830.136536 242.534149 824.846313 241.888977 819.943115 240.598694 C 815.039917 239.437408 810.523865 237.76001 806.394897 235.566467 C 802.136841 233.501984 798.394958 231.179413 794.911133 228.469788 C 791.427307 225.760132 788.588623 223.050476 786.137024 220.34082 C 786.137024 220.34082 761.750183 245.114746 761.750183 245.114746 Z M 391.708344 272.340271 C 391.708344 272.340271 429.127289 272.340271 429.127289 272.340271 C 429.127289 272.340271 429.127289 216.082825 429.127289 216.082825 C 429.127289 216.082825 452.997986 189.373413 452.997986 189.373413 C 452.997986 189.373413 501.900696 272.340271 501.900696 272.340271 C 501.900696 272.340271 545.384094 272.340271 545.384094 272.340271 C 545.384094 272.340271 476.997742 160.857605 476.997742 160.857605 C 476.997742 160.857605 541.255127 87.309998 541.255127 87.309998 C 541.255127 87.309998 495.191101 87.309998 495.191101 87.309998 C 495.191101 87.309998 429.127289 167.438171 429.127289 167.438171 C 429.127289 167.438171 429.127289 87.309998 429.127289 87.309998 C 429.127289 87.309998 391.708344 87.309998 391.708344 87.309998 C 391.708344 87.309998 391.708344 272.340271 391.708344 272.340271 Z M 315.580139 272.340271 C 315.580139 272.340271 352.999084 272.340271 352.999084 272.340271 C 352.999084 272.340271 352.999084 87.309998 352.999084 87.309998 C 352.999084 87.309998 315.580139 87.309998 315.580139 87.309998 C 315.580139 87.309998 315.580139 272.340271 315.580139 272.340271 Z M 139.582031 87.309998 C 139.582031 87.309998 139.582031 272.340271 139.582031 272.340271 C 139.582031 272.340271 220.613419 272.340271 220.613419 272.340271 C 229.645569 272.340271 238.290649 271.308014 246.419586 269.114502 C 254.548538 267.050018 261.645233 263.824249 267.709686 259.437195 C 273.774139 255.05014 278.548279 249.501801 282.161133 242.663177 C 285.644958 235.824524 287.451416 227.824615 287.451416 218.405365 C 287.451416 210.92157 286.161102 204.470032 283.709503 199.179779 C 281.257935 193.889496 278.161194 189.502472 274.548309 185.889587 C 270.935455 182.276733 267.193542 179.438049 263.193604 177.373535 C 259.193634 175.309082 255.58078 173.760681 252.613068 172.728455 C 256.35495 171.051025 259.58075 168.857544 262.548431 166.147888 C 265.516144 163.438232 267.967743 160.47052 270.032227 157.244751 C 272.096741 154.018982 273.645111 150.664185 274.806366 146.922241 C 275.838623 143.180359 276.354736 139.438477 276.354736 135.696594 C 276.354736 128.341797 274.935394 121.76123 272.225769 115.696777 C 269.516113 109.761353 265.645172 104.729187 260.742004 100.47113 C 255.838837 96.213135 250.032455 92.987366 243.451874 90.664795 C 236.871307 88.471313 229.645569 87.309998 221.903717 87.309998 C 221.903717 87.309998 139.582031 87.309998 139.582031 87.309998 Z M 249.129242 217.115051 C 249.129242 222.147278 248.226013 226.405273 246.419586 229.631042 C 244.613159 232.856842 242.290604 235.566467 239.322891 237.501953 C 236.355179 239.437408 232.871353 240.85675 229.129456 241.63092 C 225.387558 242.405121 221.516632 242.792206 217.516678 242.792206 C 217.516678 242.792206 177.000977 242.792206 177.000977 242.792206 C 177.000977 242.792206 177.000977 192.212097 177.000977 192.212097 C 177.000977 192.212097 217.516678 192.212097 217.516678 192.212097 C 221.516632 192.212097 225.387558 192.599213 229.129456 193.244354 C 232.871353 194.018524 236.355179 195.308838 239.322891 197.244324 C 242.290604 199.179779 244.613159 201.631348 246.419586 204.857117 C 248.226013 208.082916 249.129242 212.082855 249.129242 217.115051 Z M 238.677734 139.438477 C 238.677734 146.019043 236.355179 151.180298 231.839096 154.92218 C 227.323013 158.664063 220.09729 160.599548 210.290939 160.599548 C 210.290939 160.599548 177.000977 160.599548 177.000977 160.599548 C 177.000977 160.599548 177.000977 116.987122 177.000977 116.987122 C 177.000977 116.987122 210.290939 116.987122 210.290939 116.987122 C 220.226318 116.987122 227.452057 118.922546 231.968124 122.922546 C 236.484207 126.922485 238.677734 132.341797 238.677734 139.438477 Z"/>
        <path id="Path-copy" fill="#cc0000" stroke="none" d="M 566.966309 250.488953 C 566.966309 257.280396 566.461792 263.739014 565.703674 269.949341 C 565.703674 269.949341 577.482422 275 599.948914 275 C 635.28772 275 663.21698 259.515167 694.012268 259.515167 C 720.599609 259.515167 738.266418 269.949341 738.266418 269.949341 L 738.266418 230.946655 C 738.266418 230.946655 723.373291 220.512482 694.685913 220.512482 C 662.546021 220.512482 637.303223 235.997314 603.734253 235.997314 C 579.249573 235.997314 565.621765 230.946655 565.621765 230.946655 C 566.377258 237.156982 566.881775 243.615601 566.881775 250.407043 Z M 566.966309 181.096313 C 566.966309 187.887756 566.461792 194.346375 565.703674 200.556671 C 565.703674 200.556671 577.482422 205.607361 599.948914 205.607361 C 635.28772 205.607361 663.21698 190.122498 694.012268 190.122498 C 720.599609 190.122498 738.266418 200.556671 738.266418 200.556671 L 738.266418 161.554016 C 738.266418 161.554016 723.373291 151.119812 694.685913 151.119812 C 662.546021 151.119812 637.303223 166.604675 603.734253 166.604675 C 579.249573 166.604675 565.621765 161.554016 565.621765 161.554016 C 566.377258 167.764343 566.881775 174.222961 566.881775 181.014404 Z M 566.966309 114.183044 C 566.966309 120.974487 566.461792 127.433105 565.703674 133.643433 C 565.703674 133.643433 577.482422 138.694092 599.948914 138.694092 C 635.28772 138.694092 663.21698 123.20929 694.012268 123.20929 C 720.599609 123.20929 738.266418 133.643433 738.266418 133.643433 L 738.266418 94.640747 C 738.266418 94.640747 723.373291 84.206604 694.685913 84.206604 C 662.546021 84.206604 637.303223 99.691467 603.734253 99.691467 C 579.249573 99.691467 565.621765 94.640747 565.621765 94.640747 C 566.377258 100.851074 566.881775 107.309692 566.881775 114.101196 Z M 566.966309 114.183044"/>
    </g>
    <path id="Projects" fill="#000000" fill-rule="evenodd" stroke="none" d="M 943.757019 583.334961 C 964.924988 583.334961 980.044983 570.860962 980.044983 552.906006 C 980.044983 540.243042 974.375 532.115967 962.468018 526.823975 L 945.458008 519.264038 C 940.732971 517.184998 938.276001 514.916992 938.276001 511.136993 C 938.276001 506.979004 941.677979 504.522003 947.348022 504.522003 C 956.419983 504.522003 969.650024 510.381012 975.697998 517.374023 L 975.697998 493.371002 C 967.382019 487.134003 958.309998 484.488007 946.403015 484.488007 C 925.612976 484.488007 910.682007 496.584015 910.682007 513.405029 C 910.682007 525.690002 916.541016 533.627991 928.637024 539.109009 L 946.025024 546.858032 C 950.560974 548.747986 952.640015 550.827026 952.640015 554.984985 C 952.640015 559.709961 949.237976 562.355957 942.812012 562.355957 C 932.416992 562.355957 918.052979 555.552002 909.547974 545.156982 L 909.547974 571.049988 C 918.619995 579.554993 929.960022 583.334961 943.757019 583.334961 Z M 864.565979 583.334961 C 885.166992 583.334961 897.073975 571.427979 897.073975 549.504028 C 892.916016 555.174011 885.734009 558.765015 876.661987 558.765015 C 865.888977 558.765015 859.273987 552.528015 859.273987 540.999023 L 859.273987 510.381012 L 895.750977 510.381012 L 895.750977 487.322998 L 859.273987 487.322998 L 859.273987 460.484985 L 814.291992 510.381012 L 833.002991 510.381012 L 833.002991 551.204956 C 833.002991 571.427979 844.343018 583.334961 864.565979 583.334961 Z M 771.388977 583.334961 C 795.203003 583.334961 808.810974 571.427979 808.810974 545.156982 C 803.330017 553.283997 793.690979 557.820007 782.161987 557.820007 C 763.640015 557.820007 753.244995 547.614014 753.244995 533.061035 C 753.244995 517.94104 763.640015 508.868988 779.705017 508.868988 C 792.179016 508.868988 801.629028 514.349976 806.731995 521.721008 L 806.731995 493.937988 C 799.361023 487.700989 788.966003 484.488007 775.357971 484.488007 C 745.684998 484.488007 725.27301 505.656006 725.27301 534.950989 C 725.27301 565.002014 744.362 583.334961 771.388977 583.334961 Z M 668.005981 583.334961 C 694.466003 583.334961 709.208008 569.916016 709.208008 548.18103 C 704.10498 554.417969 692.008972 558.386963 678.968018 558.386963 C 661.013 558.386963 647.026978 551.394043 645.325989 537.974976 L 710.908997 537.974976 C 711.476013 504.144012 695.978027 484.488007 664.604004 484.488007 C 635.687012 484.488007 617.921021 504.899994 617.921021 534.572998 C 617.921021 564.624023 637.388 583.334961 668.005981 583.334961 Z M 645.137024 521.343018 C 645.893005 509.436005 652.885986 501.876007 664.414978 501.876007 C 677.078003 501.876007 683.315002 510.381012 683.315002 521.343018 Z M 570.481995 511.136993 L 570.481995 575.208008 C 570.481995 593.919006 567.458008 604.880981 557.440979 617.35498 C 584.090027 617.35498 596.942017 604.125 596.942017 576.719971 L 596.942017 487.322998 L 570.481995 487.322998 Z M 583.901001 474.660004 C 592.973022 474.660004 599.776978 468.234009 599.776978 459.161987 C 599.776978 450.467987 592.973022 443.664001 583.901001 443.664001 C 574.640015 443.664001 568.025024 450.467987 568.025024 459.161987 C 568.025024 468.234009 574.640015 474.660004 583.901001 474.660004 Z M 498.661987 583.334961 C 526.445007 583.334961 549.314026 564.434998 549.314026 533.627991 C 549.314026 502.821014 526.445007 484.488007 498.661987 484.488007 C 470.878998 484.488007 448.01001 502.821014 448.01001 533.627991 C 448.01001 564.434998 470.878998 583.334961 498.661987 583.334961 Z M 498.661987 558.953979 C 484.86499 558.953979 475.604004 548.55896 475.604004 533.627991 C 475.604004 518.885986 484.675995 508.868988 498.661987 508.868988 C 512.458984 508.868988 521.719971 518.885986 521.719971 533.627991 C 521.719971 548.55896 512.458984 558.953979 498.661987 558.953979 Z M 383.75 580.5 L 410.209991 580.5 L 410.209991 565.56897 L 410.209991 525.122986 C 413.045013 514.539001 421.171997 510.381012 430.054993 510.381012 C 434.023987 510.381012 437.237 510.947998 439.505005 511.70401 L 439.505005 486.756012 C 437.803986 485.811005 434.779999 485.433014 431.377991 485.433014 C 419.471008 485.433014 411.343994 491.291992 407.752991 503.388 L 407.752991 487.322998 L 383.75 487.322998 L 383.75 503.954987 L 383.75 566.325012 Z M 270.350006 580.5 L 297.944 580.5 L 297.944 565.002014 L 297.944 530.036987 L 322.514008 530.036987 C 349.162994 530.036987 366.73999 513.026978 366.73999 489.213013 C 366.73999 465.398987 349.162994 448.200012 322.514008 448.200012 L 270.350006 448.200012 L 270.350006 463.697998 L 270.350006 564.812988 Z M 297.944 507.356995 L 297.944 471.069 L 317.411011 471.069 C 332.34201 471.069 338.390015 478.628998 338.390015 489.213013 C 338.390015 499.608002 332.34201 507.356995 317.411011 507.356995 Z"/>
    <path id="Line" fill="none" stroke="#000000" stroke-width="3" stroke-linecap="round" stroke-linejoin="round" d="M 24.996845 333.503876 L 1215.000977 333.503876"/>
</svg>
