<?xml version="1.0" encoding="UTF-8"?>
<!-- Generated by Pixelmator Pro Trial 3.5.8 -->
<svg width="751" height="109" viewBox="0 0 751 109" xmlns="http://www.w3.org/2000/svg">
    <path id="path1" fill="#1155cc" fill-rule="evenodd" stroke="none" d="M 326.77951 61.074001 C 326.77951 63.28801 327.107483 65.440491 327.763489 67.531502 C 328.419495 69.622513 329.382996 71.467491 330.653992 73.066498 C 331.925018 74.665512 333.483002 75.936493 335.328003 76.879501 C 337.173004 77.822502 339.2435 78.293999 341.53949 78.293999 C 343.589508 78.293999 345.536987 78.048004 347.381989 77.556 C 349.22702 77.063995 351.215485 76.080002 353.347504 74.604004 C 349.001465 71.241982 345.721497 66.957527 343.507507 61.7505 C 341.293488 56.543472 340.186493 50.988029 340.186493 45.084 L 340.186493 42.992996 C 336.49649 44.387009 333.339508 46.703484 330.715515 49.942501 C 328.091492 53.181515 326.77951 56.891979 326.77951 61.074001 Z M 368.230499 19.991997 C 368.230499 18.597992 367.881989 17.470505 367.184998 16.609497 C 366.488007 15.748497 365.40152 15.318001 363.925507 15.318001 C 362.285492 15.318001 360.645508 15.973991 359.005493 17.286003 C 357.365479 18.598007 355.869019 20.360992 354.515991 22.574997 C 353.162994 24.789009 352.076508 27.310486 351.2565 30.139503 C 350.436493 32.968513 350.026489 35.858986 350.026489 38.810997 C 352.158508 38.237 354.310974 37.417007 356.484009 36.350998 C 358.657013 35.284996 360.604492 33.952507 362.326508 32.3535 C 364.048523 30.754494 365.462982 28.909508 366.570007 26.818497 C 367.677002 24.727493 368.230499 22.452011 368.230499 19.991997 Z M 415.462494 62.673 C 411.444489 69.233032 406.340027 74.255478 400.148987 77.740501 C 393.957977 81.225517 386.885529 82.968002 378.931488 82.968002 C 374.503479 82.968002 370.157532 82.394005 365.893494 81.246002 C 361.629486 80.097992 357.775513 78.130013 354.331512 75.341995 C 351.379486 77.310013 348.222504 78.990997 344.860504 80.385002 C 341.498474 81.779007 337.972504 82.475998 334.282501 82.475998 C 331.986481 82.475998 329.752014 82.127502 327.57901 81.430496 C 325.405975 80.733498 323.499512 79.708511 321.859497 78.355499 C 320.219482 77.002495 318.907501 75.34201 317.923492 73.374001 C 316.939484 71.405991 316.44751 69.192017 316.44751 66.731995 C 316.44751 63.369984 317.185486 60.377014 318.661499 57.752998 C 320.137512 55.128986 322.023499 52.792011 324.319489 50.742001 C 326.615509 48.69199 329.177979 46.929008 332.006989 45.452999 C 334.836029 43.97699 337.644501 42.747002 340.432495 41.763 C 340.760498 38.646988 341.641998 35.38752 343.076996 31.984497 C 344.511993 28.581482 346.39798 25.486015 348.734985 22.697998 C 351.072021 19.909988 353.798492 17.614006 356.91449 15.809998 C 360.030518 14.005989 363.474487 13.103996 367.24649 13.103996 C 370.198517 13.103996 372.576477 13.759995 374.380493 15.071999 C 376.184509 16.38401 377.086487 18.228989 377.086487 20.607002 C 377.086487 23.559013 376.082001 26.05999 374.072998 28.110001 C 372.063995 30.160011 369.64502 31.922989 366.81601 33.399002 C 363.987 34.875008 361.014526 36.104996 357.898499 37.088997 C 354.782471 38.073006 352.158508 39.015999 350.026489 39.917999 C 350.190491 42.542015 350.518494 45.186485 351.010498 47.851501 C 351.502502 50.516514 352.220001 53.119987 353.162994 55.661999 C 354.106018 58.204014 355.23349 60.581989 356.545502 62.796001 C 357.857513 65.01001 359.374481 66.977997 361.096497 68.699997 C 364.540527 65.501984 367.635986 62.242516 370.382996 58.921501 C 373.130005 55.600483 375.753998 52.566513 378.255005 49.8195 C 380.756012 47.072487 383.256989 44.817513 385.757996 43.054497 C 388.259003 41.291489 390.985474 40.410004 393.9375 40.410004 C 396.233521 40.410004 397.975983 41.024994 399.165009 42.254997 C 400.354004 43.485008 400.948486 44.919991 400.948486 46.560001 C 400.948486 48.118008 400.456512 49.491493 399.472504 50.6805 C 398.488495 51.869507 397.053497 52.464001 395.167511 52.464001 C 393.527496 52.464001 392.235992 51.951504 391.292999 50.926498 C 390.350006 49.901493 389.87851 48.774006 389.87851 47.543999 C 389.87851 46.723995 390.001495 46.027004 390.247498 45.452999 C 390.4935 44.878998 390.821503 44.264 391.231506 43.608002 C 390.903503 43.444 390.4935 43.362 390.001495 43.362 C 388.361481 43.362 386.475525 44.243492 384.343506 46.0065 C 382.211487 47.769508 379.956512 49.962986 377.578491 52.587002 C 375.2005 55.211014 372.679016 58.039986 370.014008 61.074001 C 367.348999 64.108017 364.622528 66.895988 361.834503 69.438004 C 364.86853 72.718018 368.476471 75.300995 372.658508 77.186996 C 376.840515 79.073013 381.227478 80.015999 385.819489 80.015999 C 392.133545 80.015999 397.606964 78.355515 402.23999 75.0345 C 406.873016 71.713486 410.911469 67.470024 414.355499 62.304001 Z"/>
    <path id="ARYAN" fill="#1155cc" fill-rule="evenodd" stroke="none" d="M 77.21875 81 L 77.21875 78.947266 C 78.881775 78.614471 80.143234 78.240326 81.003906 77.824219 C 81.864586 77.408112 82.445137 76.819855 82.744141 76.060547 C 83.043144 75.301239 83.191406 74.265671 83.191406 72.951172 L 83.191406 24.886719 C 83.191406 23.530098 83.043144 22.470512 82.744141 21.707031 C 82.445137 20.943558 81.864586 20.355095 81.003906 19.939453 C 80.143234 19.523811 78.881775 19.173889 77.21875 18.890625 L 77.21875 16.837891 L 105.398438 16.837891 C 111.519188 16.837891 116.582275 17.537498 120.585938 18.935547 C 124.5896 20.333588 127.576523 22.304619 129.546875 24.849609 C 131.517242 27.394608 132.505707 30.373672 132.511719 33.789063 C 132.511719 36.524521 131.901382 38.92807 130.679688 40.996094 C 129.457993 43.064117 127.813423 44.75399 125.746094 46.066406 C 124.001846 47.173717 122.097183 47.97311 120.035156 48.470703 L 120 49 L 118.873047 48.71875 C 119.2659 48.647499 119.653214 48.56287 120.035156 48.470703 L 129.179688 67.707031 C 130.63443 70.620682 131.854538 72.838547 132.841797 74.361328 C 133.829056 75.884109 134.713547 76.970886 135.494141 77.623047 C 136.27475 78.275208 137.081848 78.75573 137.914063 79.064453 L 137.914063 81 L 119.921875 81 L 106.308594 51.232422 L 98.755859 51.232422 L 98.755859 73.259766 C 98.755859 74.501137 98.902565 75.485413 99.195313 76.210938 C 99.488068 76.936462 100.036568 77.4991 100.839844 77.900391 C 101.643127 78.301682 102.816994 78.650574 104.365234 78.947266 L 104.365234 81 L 77.21875 81 Z M 149.441406 81 L 149.441406 78.947266 C 151.264587 78.675568 152.639771 78.305397 153.566406 77.833984 C 154.493027 77.362572 155.11618 76.684235 155.435547 75.802734 C 155.754913 74.921234 155.914063 73.744843 155.914063 72.273438 L 155.914063 52.203125 L 142.177734 27.818359 C 140.895172 25.566582 139.800797 23.851219 138.894531 22.671875 C 137.988266 21.492531 137.073776 20.632851 136.150391 20.095703 C 135.22699 19.558563 134.095261 19.157692 132.753906 18.890625 L 132.753906 16.837891 L 161.578125 16.837891 L 161.578125 18.890625 C 158.940796 19.261368 157.42276 20.062912 157.025391 21.296875 C 156.628036 22.530838 157.330826 24.830276 159.130859 28.193359 L 170.167969 48.632813 L 169.619141 49.714844 L 170.751953 49.714844 L 170.167969 48.632813 L 180.005859 29.230469 C 181.306015 26.672745 182.093842 24.695251 182.371094 23.298828 C 182.648346 21.902405 182.394943 20.886322 181.611328 20.248047 C 180.827728 19.609772 179.492416 19.157227 177.603516 18.890625 L 177.603516 16.837891 L 194.511719 16.837891 L 194.511719 18.890625 C 193.086136 19.175743 191.871445 19.616272 190.869141 20.212891 C 189.866837 20.809509 188.851639 21.806335 187.822266 23.205078 C 186.792877 24.603821 185.514755 26.642715 183.988281 29.320313 L 171.478516 51.253906 L 171.478516 72.273438 C 171.478516 73.744843 171.634842 74.921234 171.947266 75.802734 C 172.259689 76.684235 172.881485 77.362572 173.8125 77.833984 C 174.74353 78.305397 176.115295 78.675568 177.929688 78.947266 L 177.929688 81 L 149.441406 81 Z M 181.273438 81 L 181.273438 78.947266 C 182.820755 78.669556 184.080276 78.213493 185.052734 77.580078 C 186.025177 76.946671 186.918625 75.871902 187.730469 74.353516 C 188.542313 72.835129 189.466751 70.613281 190.505859 67.689453 L 208.664063 16.837891 L 218.996094 16.837891 L 237.404297 69.273438 C 238.231415 71.654343 239.009949 73.496696 239.742188 74.800781 C 240.474411 76.104866 241.316971 77.055161 242.269531 77.650391 C 243.160202 78.206955 244.287659 78.618141 245.644531 78.890625 C 247.217148 78.609741 248.411835 78.189171 249.216797 77.626953 C 250.076309 77.026634 250.658569 76.071953 250.962891 74.759766 C 251.267212 73.447578 251.430435 71.597961 251.453125 69.212891 L 252.017578 26.09375 C 252.039795 24.568649 251.882217 23.337669 251.546875 22.400391 C 251.211548 21.463112 250.613449 20.722511 249.75 20.177734 C 248.886551 19.632957 247.676727 19.203979 246.121094 18.890625 L 246.121094 16.837891 L 268.910156 16.837891 L 299.472656 66.783203 L 300 67 L 300.5625 68.564453 L 299.472656 66.783203 L 298.583984 28.703125 C 298.531677 26.267593 298.345764 24.393555 298.027344 23.078125 C 297.708893 21.762695 297.097778 20.80471 296.193359 20.205078 C 295.28894 19.605453 293.924652 19.170235 292.099609 18.900391 L 292.099609 16.837891 L 308.859375 16.837891 L 308.859375 18.890625 C 307.132477 19.161392 305.83847 19.598412 304.978516 20.203125 C 304.11853 20.807846 303.539368 21.761856 303.238281 23.066406 C 302.937195 24.370949 302.768524 26.224648 302.732422 28.625 L 302.048828 81 L 288.941406 81 L 254.769531 25.132813 L 254.728516 22.935547 L 255 25 L 254.769531 25.132813 L 255.599609 69.134766 C 255.651901 71.570282 255.835648 73.444336 256.150391 74.759766 C 256.465118 76.075195 257.080322 77.031723 257.996094 77.626953 C 258.911835 78.222183 260.278564 78.658859 262.095703 78.9375 L 262.095703 81 L 245.927734 81 L 245.324219 81 L 216.320313 81 L 216.320313 78.947266 C 218.212448 78.664925 219.611542 78.204453 220.517578 77.566406 C 221.423615 76.92836 221.886581 75.926987 221.90625 74.5625 C 221.925919 73.198013 221.534454 71.298904 220.730469 68.865234 L 217.429688 58.898438 L 218 59 L 217 56 L 216.455078 55.957031 L 207.298828 28.302734 L 207.738281 26.935547 L 206.845703 26.935547 L 207.298828 28.302734 L 198.412109 55.957031 L 198 56 L 197 59 L 197.466797 58.898438 L 194.585938 67.865234 C 193.717621 70.611786 193.25885 72.72963 193.210938 74.220703 C 193.16304 75.711777 193.596436 76.793015 194.511719 77.464844 C 195.427017 78.136673 196.894547 78.631134 198.912109 78.947266 L 198.912109 81 L 181.273438 81 Z M 197.466797 58.898438 L 198.412109 55.957031 L 216.455078 55.957031 L 217.429688 58.898438 L 197.466797 58.898438 Z M 98.755859 48.880859 L 102.933594 48.732422 C 107.278839 48.541725 110.762711 47.225571 113.384766 44.78125 C 116.006821 42.336929 117.318359 38.869591 117.318359 34.380859 C 117.318359 31.585236 116.78981 29.080315 115.732422 26.867188 C 114.675041 24.654053 113.037048 22.883774 110.818359 21.554688 C 108.599678 20.225609 105.736008 19.483078 102.228516 19.326172 L 98.755859 19.201172 L 98.755859 48.880859 Z M 68.218193 69.273003 L 49.810886 16.837891 L 39.478687 16.837891 L 21.32062 67.690056 C 20.281517 70.613892 19.356058 72.834976 18.544214 74.353363 C 17.732372 75.87175 16.840239 76.947632 15.867785 77.581039 C 14.895332 78.214455 13.635468 78.670013 12.088153 78.947723 L 12.088153 81 L 29.726179 81 L 29.726179 78.947723 C 27.708633 78.631592 26.242224 78.137619 25.326933 77.46579 C 24.411644 76.793961 23.977957 75.712524 24.025862 74.221451 C 24.073769 72.73037 24.53187 70.61158 25.400179 67.865013 L 38.553219 26.934731 L 37.660381 26.934731 L 51.544491 68.866158 C 52.348465 71.299835 52.740608 73.198891 52.72094 74.563377 C 52.701267 75.927864 52.238422 76.929115 51.33239 77.567154 C 50.426357 78.2052 49.02729 78.665382 47.135151 78.947723 L 47.135151 81 L 76.741806 81 L 76.741806 78.947723 C 75.25605 78.677414 74.036919 78.244659 73.084366 77.649429 C 72.131821 77.054199 71.289444 76.104553 70.557205 74.800476 C 69.824974 73.496384 69.045311 71.653915 68.218193 69.273003 Z M 28 59 L 48 59 L 47 56 L 28.999981 56 Z"/>
    <path id="BIKESH" fill="#1155cc" fill-rule="evenodd" stroke="none" d="M 723.91748 80 L 737.203491 80 L 737.203491 72.537994 L 737.203491 23.852997 L 737.203491 16.300003 L 723.91748 16.300003 L 723.91748 23.762001 L 723.91748 40.870003 L 696.253479 40.870003 L 696.253479 23.852997 L 696.253479 16.300003 L 682.967529 16.300003 L 682.967529 23.762001 L 682.967529 72.446999 L 682.967529 80 L 696.253479 80 L 696.253479 72.537994 L 696.253479 53.245998 L 723.91748 53.245998 L 723.91748 72.446999 Z M 646.476501 81.364998 C 661.036499 81.364998 670.591492 73.630005 670.591492 61.071999 C 670.591492 52.791 666.405518 46.875999 658.215515 43.691002 L 646.840515 39.232002 C 642.745483 37.594002 641.198486 35.682999 641.198486 32.862 C 641.198486 29.130997 644.201477 26.856003 649.388489 26.856003 C 655.485474 26.856003 663.402527 30.041 667.952515 35.045998 L 667.952515 21.213997 C 662.765503 17.119003 656.668518 14.934998 649.024475 14.934998 C 636.375488 14.934998 627.093506 22.579002 627.093506 33.862999 C 627.093506 41.507004 631.00647 47.148998 639.378479 50.698002 L 650.298523 55.339001 C 654.484497 57.068001 656.486511 59.160999 656.486511 62.255001 C 656.486511 66.441002 653.028503 69.171005 647.295471 69.171005 C 639.014526 69.171005 631.461487 65.257996 626.001526 58.706001 L 626.001526 72.992996 C 630.915527 78.362 638.013489 81.364998 646.476501 81.364998 Z M 616.719482 80 L 616.719482 68.078995 L 603.433472 68.078995 L 588.873474 68.078995 L 588.873474 53.154999 L 602.159485 53.154999 L 611.623474 53.154999 L 611.623474 41.324997 L 602.250488 41.324997 L 588.873474 41.324997 L 588.873474 28.221001 L 604.798523 28.221001 L 616.719482 28.221001 L 616.719482 16.300003 L 575.587524 16.300003 L 575.587524 23.762001 L 575.587524 72.446999 L 575.587524 80 Z M 549.19751 80 L 566.851501 80 C 563.939514 76.723999 562.301514 74.630997 559.389526 71.445999 L 536.912476 46.056999 L 554.839478 27.675003 L 565.759521 16.300003 L 548.833496 16.300003 L 538.641479 27.310997 L 522.898499 43.963997 L 522.898499 23.852997 L 522.898499 16.300003 L 509.612488 16.300003 L 509.612488 23.762001 L 509.612488 72.446999 L 509.612488 80 L 522.898499 80 L 522.898499 72.537994 L 522.898499 49.333 Z M 479.946503 80 L 493.232513 80 L 493.232513 72.537994 L 493.232513 23.852997 L 493.232513 16.300003 L 479.946503 16.300003 L 479.946503 23.762001 L 479.946503 72.446999 Z M 446.00351 80 C 459.653503 80 467.388489 72.720001 467.388489 61.162998 C 467.388489 53.245998 462.019501 46.966999 453.101501 46.056999 C 461.291504 44.964996 465.295502 38.503998 465.295502 31.769997 C 465.295502 22.124001 458.47049 16.300003 446.185486 16.300003 L 420.796509 16.300003 L 420.796509 23.762001 L 420.796509 72.446999 L 420.796509 80 Z M 444.001495 69.171005 L 434.173492 69.171005 L 434.173492 51.790001 L 443.910492 51.790001 C 449.8255 51.790001 453.829498 54.974998 453.829498 60.526001 C 453.829498 65.986 449.916504 69.171005 444.001495 69.171005 Z M 442.818512 41.598 L 434.173492 41.598 L 434.173492 26.401001 L 443.000488 26.401001 C 448.73349 26.401001 451.554504 29.403999 451.554504 34.044998 C 451.554504 38.685997 448.73349 41.598 442.818512 41.598 Z"/>
</svg>
