<?xml version="1.0" encoding="UTF-8"?>
<svg width="416" height="373" viewBox="0 0 416 373" xmlns="http://www.w3.org/2000/svg" xmlns:xlink="http://www.w3.org/1999/xlink">
    <g id="Group-copy-2">
        <path id="crest-copy" fill="#000000" fill-rule="evenodd" stroke="none" d="M 145.124817 292.16745 L 145.124817 292.157959 L 144.109329 292.774841 L 144.109329 292.784332 L 143.093857 293.439178 L 142.249191 294.037079 L 141.376068 294.729889 L 140.673767 295.365753 L 140.199249 295.878235 L 139.952499 296.153442 L 139.696243 296.495117 L 139.430511 296.884216 L 139.240707 297.206909 L 139.06987 297.548553 L 138.974976 297.785828 L 138.842102 298.2034 L 138.785156 298.450165 L 138.718735 298.886719 L 138.699753 299.180939 L 138.718735 299.570038 L 138.747192 299.845276 L 138.842102 300.329285 L 138.832611 300.329285 L 139.060379 301.26886 L 137.855087 302.236877 L 136.365082 301.496613 L 134.80864 300.670959 L 133.337616 299.826294 L 131.951996 298.962646 L 130.651794 298.070557 L 129.446503 297.159454 L 128.336121 296.22937 L 127.311142 295.270844 L 126.400047 294.293335 L 125.792656 293.534088 L 125.41304 293.021606 L 125.06189 292.509094 L 124.729721 291.977631 L 124.445007 291.436676 L 124.188766 290.905212 L 123.9515 290.345276 L 123.752197 289.79483 L 123.590858 289.234863 L 123.457993 288.665466 L 123.363091 288.086548 L 123.306145 287.498108 L 123.287163 286.92868 L 123.296654 286.349762 L 123.325127 286.0271 L 123.391563 285.524109 L 123.581367 284.584534 L 123.856598 283.66394 L 124.207741 282.771851 L 124.634819 281.908203 L 125.128326 281.073059 L 125.669281 280.266357 L 126.25769 279.488129 L 126.903046 278.728882 L 127.576874 277.998108 L 128.288666 277.286316 L 129.028915 276.593536 L 129.797653 275.929199 L 130.575867 275.274353 L 131.771683 274.315796 L 133.394547 273.101013 L 135.007935 271.943176 L 136.573868 270.832794 L 138.07338 269.750854 L 139.402039 268.744873 L 140.341599 267.985657 L 140.863586 267.520599 L 141.347595 267.055573 L 141.774673 266.600037 L 142.059387 266.248871 L 142.401047 265.764862 L 142.904037 264.891724 L 144.488953 265.138489 L 146.073868 265.404236 L 147.687256 265.74588 L 149.291153 266.14447 L 150.885559 266.609497 L 152.460983 267.140991 L 153.979462 267.729401 L 155.080353 268.232391 L 155.792145 268.593018 L 156.475464 268.953674 L 157.149292 269.342773 L 157.804138 269.750854 L 158.41153 270.187439 L 159.018921 270.642975 L 159.569366 271.117493 L 160.10083 271.620514 L 160.584854 272.151978 L 161.030899 272.692932 L 161.448486 273.281342 L 161.799637 273.898224 L 162.103333 274.515106 L 162.359573 275.179443 L 162.558884 275.862762 L 162.691742 276.565063 L 162.758179 277.276855 L 162.76767 277.675446 L 162.758179 277.969666 L 162.710724 278.501129 L 162.615814 279.032593 L 162.482956 279.545074 L 162.302628 280.057556 L 162.084351 280.551086 L 161.837601 281.025604 L 161.543396 281.48114 L 161.2397 281.917694 L 160.898041 282.36377 L 160.338104 282.97113 L 159.521912 283.749359 L 158.620316 284.508606 L 157.642792 285.220398 L 156.608337 285.903717 L 155.526413 286.568054 L 154.40654 287.213409 L 152.660278 288.171936 L 147.924515 290.629974 L 146.235214 291.531586 Z M 145.959976 297.235382 L 145.077362 297.823792 L 144.289658 298.393219 L 143.615829 298.934174 L 142.913528 299.560547 L 142.42952 300.063538 L 141.879059 300.746857 L 141.6418 301.117004 L 141.451996 301.458649 L 141.338104 301.686432 L 141.262177 301.876221 L 142.58136 302.407715 L 144.156784 303.005615 L 145.8461 303.603516 L 145.8461 303.613007 L 147.544891 304.182434 L 147.544891 304.172943 L 149.310135 304.73288 L 151.151291 305.273834 L 153.001938 305.795807 L 154.938004 306.298828 L 156.893051 306.782837 L 158.91452 307.257355 L 160.964478 307.7034 L 163.033401 308.130493 L 165.168762 308.538574 L 167.332596 308.937164 L 169.50592 309.307312 L 171.717209 309.667938 L 171.717209 309.658447 L 173.966461 309.990601 L 176.234695 310.303802 L 178.521912 310.588531 L 180.847076 310.863739 L 183.153275 311.110504 L 186.664764 311.452148 L 186.664764 311.442657 L 191.429001 311.812805 L 196.202713 312.088013 L 199.790131 312.239868 L 202.191223 312.315796 L 204.592331 312.363251 L 206.983932 312.391724 L 209.356567 312.391724 L 211.738678 312.372742 L 214.139771 312.325287 L 216.540878 312.249359 L 218.922989 312.154449 L 221.324081 312.031067 L 223.715698 311.888733 L 226.097809 311.727386 L 228.479935 311.537567 L 228.479935 311.547058 L 230.824081 311.328766 L 233.168243 311.091522 L 235.502899 310.835266 L 237.799606 310.560059 L 240.096313 310.256348 L 242.364532 309.933685 L 244.623276 309.59201 L 244.623276 309.601501 L 246.825073 309.240875 L 249.026871 308.851746 L 251.162231 308.462646 L 251.162231 308.453156 L 253.307098 308.026093 L 253.307098 308.035583 L 255.376022 307.598999 L 257.435455 307.133972 L 259.466431 306.659454 L 261.393005 306.175415 L 263.338562 305.653442 L 265.189209 305.140961 L 265.189209 305.13147 L 267.030365 304.581024 L 268.805084 304.021088 L 268.805084 304.030579 L 270.513367 303.461151 L 270.513367 303.45166 L 272.193207 302.85376 L 273.778107 302.255859 L 275.030853 301.752869 L 274.869507 301.430176 L 274.660736 301.107513 L 274.319061 300.632996 L 273.873016 300.120483 L 273.237152 299.484619 L 272.629761 298.962646 L 271.898987 298.393219 L 271.063843 297.80481 L 270.238159 297.263855 L 268.881012 296.438171 L 265.89151 294.758362 L 262.797607 293.040588 L 261.269623 292.129486 L 260.273132 291.503113 L 259.286102 290.848267 L 258.346558 290.174438 L 257.444946 289.472137 L 256.581329 288.722412 L 255.79361 287.953674 L 255.043854 287.127991 L 254.389008 286.264343 L 253.952454 285.571533 L 253.677216 285.097015 L 253.430466 284.603516 L 253.212189 284.100525 L 253.03186 283.578552 L 252.870529 283.06604 L 252.737656 282.525085 L 252.623779 281.97464 L 252.557343 281.38623 L 252.52887 280.816803 L 252.52887 280.513123 L 252.538361 279.905701 L 252.604797 278.747864 L 252.737656 277.656464 L 252.927475 276.612518 L 253.164734 275.625488 L 253.439957 274.685944 L 253.762634 273.803314 L 254.104294 272.977661 L 254.464935 272.208923 L 254.835068 271.478149 L 255.404495 270.462646 L 256.48642 268.754364 L 257.093811 267.786346 L 257.425964 267.311829 L 257.97641 266.476654 L 258.488922 265.65097 L 258.991913 264.815796 L 259.665741 263.591553 L 260.45343 262.025604 L 260.443939 262.025604 L 261.184204 260.40271 L 261.810577 258.893738 L 261.801086 258.893738 L 262.683716 256.587524 L 263.51889 254.385742 L 264.088318 252.943192 L 264.676727 251.54808 L 265.331573 250.171967 L 265.882019 249.16597 L 266.271118 248.501633 L 266.68869 247.846786 L 267.144257 247.210922 L 267.618774 246.59404 L 268.131256 245.977158 L 268.691193 245.379257 L 269.270111 244.800339 L 269.535858 244.553574 L 269.905975 244.192947 L 270.64624 243.490646 L 271.405487 242.8358 L 272.193207 242.209427 L 272.990387 241.639999 L 273.80658 241.09903 L 274.641754 240.596039 L 275.505371 240.140503 L 276.37851 239.732407 L 277.280121 239.362274 L 278.191193 239.030106 L 279.130768 238.735901 L 280.089294 238.47966 L 281.066833 238.270859 L 282.082306 238.090546 L 283.107269 237.967163 L 284.141754 237.862778 L 285.223663 237.796341 L 286.315063 237.777359 L 287.434937 237.78685 L 288.573822 237.824814 L 289.74115 237.900742 L 290.936951 238.014618 L 292.170715 238.156982 L 293.423462 238.327805 L 294.714172 238.546097 L 296.023865 238.783356 L 297.36203 239.058578 L 299.44043 239.504639 L 302.325562 240.225906 L 303.863007 240.634003 L 304.650726 240.899734 L 306.197693 241.440689 L 307.744629 242.029114 L 309.291595 242.655487 L 310.848022 243.3293 L 312.40448 244.041092 L 313.970398 244.790848 L 315.536346 245.578552 L 317.111755 246.404236 L 318.687195 247.258377 L 320.253113 248.150482 L 321.838043 249.052078 L 324.210663 250.485138 L 327.389984 252.459167 L 330.569305 254.528107 L 333.758118 256.663452 L 336.94693 258.855774 L 340.135742 261.08606 L 344.937927 264.483643 L 351.334534 269.029602 L 354.513855 271.269348 L 356.298065 272.484131 L 359.970886 274.913696 L 359.970886 274.923218 L 363.691162 277.267365 L 366.547791 278.994629 L 368.455383 280.114502 L 370.372467 281.215393 L 372.289551 282.297333 L 374.168671 283.322296 L 376.057281 284.318787 L 377.955383 285.286835 L 379.80603 286.216919 L 379.80603 286.207397 L 381.666168 287.090027 L 383.488373 287.934692 L 385.24411 288.70343 L 387.018829 289.443665 L 388.70813 290.098511 L 390.378479 290.715393 L 392.001343 291.265839 L 393.605225 291.759338 L 395.076263 292.16745 L 396.509338 292.518585 L 396.509338 292.509094 L 397.894958 292.774841 L 399.261566 292.983643 L 399.261566 292.993103 L 400.419434 293.097534 L 401.605743 293.135498 L 402.383942 293.106995 L 402.934418 293.069031 L 403.361481 293.021606 L 403.798035 292.936188 L 404.282043 292.822296 L 404.671173 292.717896 L 404.974854 292.604004 L 405.392456 292.414185 L 405.392456 292.423706 L 406.61673 291.806824 L 407.717621 293.942169 L 405.743591 294.986145 L 403.968872 295.944672 L 402.327026 296.884216 L 400.732605 297.814301 L 399.252075 298.715881 L 397.838013 299.608002 L 395.83551 300.927185 L 393.443909 302.588013 L 391.242096 304.182434 L 388.300049 306.384216 L 385.671173 308.339264 L 384.010345 309.506592 L 382.776581 310.303802 L 381.960388 310.787811 L 381.125214 311.243347 L 380.299561 311.66095 L 379.454895 312.040558 L 378.581757 312.382233 L 377.699158 312.666931 L 376.788055 312.913696 L 375.83902 313.113007 L 374.870972 313.264832 L 373.874481 313.369232 L 372.830505 313.416687 L 371.625214 313.416687 L 370.29657 313.359741 L 368.948914 313.226868 L 367.601257 313.027588 L 366.253601 312.771332 L 364.905945 312.467651 L 363.539307 312.097504 L 362.182159 311.679932 L 360.806061 311.195923 L 359.439423 310.67395 L 358.063293 310.113983 L 356.677673 309.48761 L 355.301544 308.832764 L 353.906464 308.139954 L 352.511353 307.399719 L 351.116241 306.630981 L 349.711639 305.82428 L 348.307068 304.979614 L 346.181183 303.669922 L 343.334015 301.828796 L 340.477386 299.902222 L 337.592285 297.890228 L 334.707153 295.83078 L 330.32254 292.670441 L 324.419464 288.390228 L 319.958923 285.220398 L 316.988373 283.179932 L 313.970398 281.167969 L 310.961914 279.231873 L 308.693695 277.846283 L 307.194183 276.963654 L 305.666199 276.090515 L 304.176208 275.274353 L 302.648224 274.45816 L 301.129761 273.689423 L 299.63974 272.977661 L 298.092773 272.27533 L 298.092773 272.265869 L 296.602783 271.620514 L 296.602783 271.630005 L 295.055817 271.003632 L 293.537354 270.434204 L 292.01886 269.912201 L 290.52887 269.447174 L 288.981903 269.01062 L 287.501373 268.649963 L 285.992401 268.327301 L 284.473907 268.071045 L 283.913971 267.995117 L 285.546326 269.096039 L 286.893982 270.073547 L 288.213165 271.108032 L 289.181213 271.933685 L 289.807587 272.512604 L 290.424469 273.119995 L 291.022369 273.746368 L 291.601288 274.391724 L 292.161224 275.075043 L 292.683197 275.767853 L 293.186188 276.498627 L 293.660736 277.267365 L 294.087799 278.064575 L 294.486389 278.871246 L 294.837555 279.715912 L 295.160217 280.598511 L 295.425964 281.528595 L 295.644226 282.46814 L 295.805573 283.445679 L 295.919464 284.461151 L 295.97641 285.495605 L 295.985901 286.036591 L 295.97641 286.492126 L 295.928955 287.298828 L 295.834045 288.10553 L 295.701172 288.90271 L 295.520874 289.671448 L 295.312073 290.440186 L 295.065308 291.199402 L 294.780609 291.939667 L 294.315552 293.040588 L 293.60379 294.511597 L 292.389008 296.760864 L 291.03186 299.199921 L 290.082794 300.965149 L 289.105286 302.863251 L 288.127747 304.922668 L 288.118256 304.922668 L 287.387512 306.602509 L 286.912964 307.760345 L 286.922455 307.760345 L 286.438446 309.022583 L 285.973419 310.322784 L 285.963928 310.322784 L 285.498901 311.698914 L 285.052826 313.131958 L 284.625763 314.640961 L 284.208191 316.235382 L 284.018372 316.966125 L 283.913971 317.592529 L 283.534363 319.38623 L 283.107269 321.075531 L 282.765625 322.299805 L 282.376526 323.590515 L 281.93045 324.92868 L 281.417969 326.285828 L 280.848541 327.652435 L 280.222168 328.98111 L 279.529358 330.281311 L 278.95993 331.201904 L 278.56134 331.799805 L 278.134247 332.378723 L 277.688202 332.929169 L 277.232666 333.44165 L 276.739136 333.93515 L 276.226654 334.381226 L 275.704681 334.789307 L 275.438965 334.969635 L 275.087799 335.206879 L 274.347534 335.690918 L 273.578827 336.146454 L 272.772125 336.60199 L 271.936951 337.029053 L 271.063843 337.456146 L 269.716187 338.063538 L 267.827576 338.822784 L 265.844055 339.553528 L 263.756134 340.227356 L 261.601807 340.86322 L 259.36203 341.461121 L 257.074829 342.011597 L 254.721176 342.524078 L 252.329575 343.008087 L 249.909485 343.444641 L 247.451447 343.852753 L 244.974426 344.241852 L 242.487915 344.583496 L 240.001404 344.896698 L 237.524384 345.181396 L 233.851563 345.561035 L 229.058853 345.988098 L 224.47493 346.3013 L 220.156754 346.538544 L 216.189728 346.69989 L 212.640274 346.7948 L 209.584335 346.842255 L 206.993423 346.842255 L 203.927994 346.7948 L 200.37854 346.69989 L 196.402023 346.548035 L 192.083847 346.320282 L 187.499924 346.00708 L 183.922012 345.712891 L 181.492432 345.475616 L 179.043884 345.21936 L 176.576355 344.934662 L 174.089844 344.62146 L 171.612823 344.279816 L 169.154785 343.890717 L 166.715714 343.482605 L 164.30513 343.046051 L 161.923019 342.552551 L 159.60733 342.030579 L 157.339096 341.470612 L 155.127808 340.86322 L 153.001938 340.217865 L 150.951996 339.515564 L 149.006439 338.77533 L 147.155792 337.98761 L 145.8461 337.351746 L 145.00145 336.915192 L 144.185257 336.469116 L 143.407043 336.004089 L 142.657288 335.520081 L 141.945496 335.026581 L 141.613327 334.779816 L 141.319122 334.552032 L 140.749695 334.077515 L 140.199249 333.555542 L 139.66777 332.976624 L 139.155289 332.369232 L 138.680771 331.733368 L 138.215729 331.05954 L 137.779175 330.357239 L 137.352097 329.635956 L 136.953491 328.895691 L 136.374573 327.756836 L 135.65329 326.181427 L 135.017426 324.587006 L 134.429016 323.002106 L 133.888062 321.445648 L 133.17627 319.224884 L 132.43602 316.633972 L 131.89505 314.650452 L 131.686264 313.976624 L 131.49646 313.103516 L 131.116837 311.575531 L 130.718231 310.08551 L 130.300644 308.709412 L 129.873581 307.418701 L 129.437012 306.203918 L 128.981476 305.046082 L 128.516434 303.973633 L 128.041916 302.95816 L 127.576874 302.028076 L 127.092857 301.107513 L 126.59935 300.224884 L 125.897057 299.048065 L 124.929024 297.539063 L 123.562393 295.517578 L 122.309647 293.638489 L 121.740211 292.698914 L 121.389061 292.063049 L 121.047409 291.408203 L 120.762688 290.743866 L 120.496956 290.060547 L 120.259697 289.358276 L 120.069885 288.617981 L 119.927528 287.858765 L 119.832619 287.080536 L 119.775681 286.254852 L 119.775681 285.818298 L 119.785172 285.277344 L 119.84211 284.242859 L 119.965485 283.217896 L 120.145805 282.230896 L 120.383072 281.272339 L 120.667786 280.351776 L 120.990463 279.459656 L 121.370087 278.596008 L 121.787666 277.770355 L 122.252701 276.973145 L 122.746208 276.194916 L 123.277672 275.454651 L 123.837616 274.742889 L 124.416534 274.05957 L 125.033417 273.395233 L 125.669281 272.759369 L 126.314636 272.151978 L 126.988464 271.554077 L 128.013443 270.718903 L 129.408539 269.665466 L 130.851105 268.687927 L 132.265182 267.776855 L 132.43602 267.672455 L 131.505936 267.814819 L 130.405045 268.004639 L 129.332611 268.2229 L 129.332611 268.232391 L 128.193756 268.498108 L 127.12133 268.763855 L 126.010941 269.077057 L 126.010941 269.086548 L 124.872078 269.428192 L 123.771179 269.788818 L 122.67028 270.177948 L 120.999954 270.79483 L 118.817139 271.686951 L 118.817139 271.696411 L 116.567886 272.711914 L 114.385071 273.774841 L 112.145309 274.942169 L 109.943512 276.147461 L 107.732224 277.428711 L 107.732224 277.419189 L 105.530426 278.757355 L 103.33812 280.133484 L 101.164795 281.557068 L 98.962997 283.018616 L 95.717247 285.248871 L 89.206757 289.842285 L 82.791176 294.426178 L 78.558411 297.396729 L 75.398071 299.541565 L 73.310165 300.927185 L 71.231743 302.26535 L 69.15332 303.54657 L 68.128349 304.163452 L 67.359619 304.618988 L 65.850624 305.492126 L 64.322655 306.31781 L 62.823154 307.105499 L 61.314163 307.845764 L 59.814663 308.548065 L 58.315163 309.19342 L 56.834644 309.791321 L 55.344635 310.341766 L 53.873608 310.816284 L 52.393089 311.252869 L 50.922058 311.613495 L 49.451031 311.907715 L 47.989494 312.125977 L 46.537445 312.287323 L 45.094891 312.363251 L 44.35463 312.363251 L 43.76622 312.344269 L 42.646339 312.249359 L 41.564423 312.088013 L 40.520466 311.879211 L 39.504982 311.613495 L 38.517971 311.290833 L 37.549938 310.920685 L 36.600887 310.503113 L 35.680309 310.028564 L 34.769218 309.535065 L 33.858131 308.984619 L 32.956532 308.405701 L 31.59939 307.466125 L 29.767723 306.109009 L 26.911081 303.869232 L 23.731762 301.382721 L 21.44455 299.664948 L 19.546448 298.298309 L 18.255739 297.406189 L 16.860636 296.476135 L 15.408588 295.53656 L 13.890107 294.597015 L 12.305193 293.657471 L 10.644354 292.708405 L 8.860139 291.740356 L 7 290.762848 L 7.353317 289.826569 L 7.759241 288.750854 L 9.486512 289.177948 L 9.486512 289.168457 L 10.93856 289.443665 L 12.428569 289.671448 L 12.428569 289.680939 L 13.823673 289.823303 L 15.323174 289.927673 L 16.737259 289.965637 L 18.160835 289.946655 L 19.660334 289.880249 L 19.660334 289.889709 L 21.06493 289.756866 L 22.554939 289.576538 L 23.969025 289.358276 L 23.969025 289.348755 L 25.459034 289.064056 L 26.92057 288.741394 L 28.372618 288.371246 L 29.796194 287.963135 L 31.295694 287.488647 L 32.757233 286.985626 L 34.199791 286.454163 L 35.6898 285.856262 L 37.141846 285.258362 L 37.141846 285.248871 L 38.631855 284.575043 L 40.102882 283.882233 L 41.564423 283.170441 L 43.054432 282.401733 L 44.544441 281.614014 L 46.015469 280.797821 L 48.236248 279.516602 L 51.206776 277.7229 L 51.206776 277.732391 L 54.177303 275.853271 L 57.128849 273.917206 L 60.118359 271.895721 L 63.08889 269.836304 L 66.0784 267.729401 L 70.567406 264.540588 L 76.546425 260.269867 L 81.035431 257.12851 L 84.034431 255.069061 L 87.042923 253.057068 L 90.051414 251.121002 L 93.059906 249.251373 L 96.068398 247.476654 L 98.336624 246.214417 L 99.85511 245.40773 L 101.354607 244.629501 L 102.863594 243.879761 L 103.622841 243.509628 L 105.207748 242.778854 L 107.665794 241.677963 L 109.393066 240.937698 L 111.167793 240.216415 L 113.027931 239.533096 L 114.470482 239.068069 L 115.457497 238.773865 L 116.463493 238.498642 L 117.488464 238.242401 L 118.541916 238.014618 L 119.614342 237.815323 L 120.70575 237.63501 L 121.82563 237.502136 L 122.964485 237.378754 L 124.12233 237.312332 L 125.30864 237.274368 L 126.513939 237.274368 L 127.747704 237.312332 L 129.009933 237.397736 L 130.291153 237.530609 L 131.591354 237.701431 L 132.939011 237.929214 L 134.296158 238.213928 L 135.672272 238.546097 L 137.105347 238.925705 L 137.836105 239.153488 L 138.443497 239.362274 L 139.553894 239.817825 L 140.607346 240.311325 L 141.603836 240.85228 L 142.562378 241.440689 L 143.454483 242.076553 L 144.299149 242.750381 L 145.096344 243.462173 L 145.836609 244.202438 L 146.557892 244.980652 L 147.222214 245.796844 L 147.867569 246.632004 L 148.47496 247.495636 L 149.053894 248.397232 L 149.613831 249.298828 L 150.164276 250.238403 L 150.933014 251.690445 L 151.948486 253.664459 L 153.429016 256.748871 L 154.975967 259.956665 L 156.09584 262.130005 L 156.987946 263.781342 L 157.62381 264.882233 L 158.297638 266.011597 L 158.288147 266.011597 L 158.971466 267.084045 L 159.351089 267.643982 L 159.673767 268.061554 L 160.451981 269.124512 L 161.04039 270.026093 L 161.438995 270.671448 L 161.818619 271.38324 L 162.169769 272.104523 L 162.52092 272.892212 L 162.824615 273.727386 L 163.109329 274.610016 L 163.356079 275.549561 L 163.555374 276.5271 L 163.716721 277.571045 L 163.830612 278.652954 L 163.887543 279.810791 L 163.887543 280.712402 L 163.840103 281.300812 L 163.783157 281.87973 L 163.669266 282.430176 L 163.545883 282.97113 L 163.375061 283.521606 L 163.166275 284.043579 L 162.957474 284.54657 L 162.691742 285.04007 L 162.42601 285.514587 L 161.970459 286.216919 L 161.296646 287.080536 L 160.54689 287.896729 L 159.730713 288.684448 L 158.857574 289.424683 L 157.936996 290.136475 L 156.968964 290.810303 L 155.981964 291.465149 L 154.966476 292.091522 L 153.410034 292.993103 L 150.287659 294.720398 L 147.326614 296.390717 Z M 275.363037 265.850281 L 275.638245 266.305817 L 275.903992 266.685425 L 276.312073 267.169464 L 276.720184 267.606018 L 277.223175 268.080536 L 278.105774 268.849274 L 279.358521 269.855286 L 280.810577 270.937195 L 283.11676 272.617004 L 285.517883 274.429688 L 286.704193 275.388245 L 287.4729 276.052551 L 288.232147 276.726379 L 288.962921 277.419189 L 289.665222 278.130981 L 290.329559 278.871246 L 290.965424 279.630493 L 291.563324 280.418213 L 292.104279 281.234375 L 292.578796 282.06955 L 293.00589 282.942688 L 293.357025 283.85376 L 293.632263 284.774353 L 293.831543 285.73288 L 293.878998 286.245361 L 293.907471 286.549072 L 293.926453 287.127991 L 293.907471 287.706909 L 293.850525 288.295319 L 293.755615 288.864746 L 293.641754 289.424683 L 293.480408 289.994141 L 293.290588 290.554077 L 293.062805 291.104492 L 292.816071 291.635986 L 292.531342 292.176941 L 292.208679 292.698914 L 291.867004 293.220886 L 291.496887 293.733398 L 291.098297 294.24585 L 290.661713 294.748871 L 289.968903 295.479645 L 288.95343 296.42868 L 287.824066 297.368256 L 286.599792 298.279327 L 285.252136 299.161957 L 283.828552 300.025574 L 282.300598 300.860748 L 280.668213 301.686432 L 279.102295 302.417175 L 277.906494 301.382721 L 278.219666 300.37674 L 278.314575 299.978149 L 278.352539 299.712402 L 278.381012 299.256866 L 278.371521 298.915192 L 278.343048 298.677917 L 278.257629 298.250854 L 278.172211 297.937683 L 278.048828 297.624481 L 277.887512 297.282837 L 277.745148 297.026581 L 277.498383 296.637482 L 277.27063 296.333771 L 276.985901 295.982635 L 276.596802 295.555542 L 275.828064 294.843781 L 275.087799 294.24585 L 274.148254 293.562561 L 273.199188 292.936188 L 272.174225 292.309814 L 271.092285 291.692932 L 269.402985 290.762848 L 267.07782 289.538574 L 264.714691 288.314301 L 262.996887 287.355774 L 261.877014 286.700928 L 260.814087 286.0271 L 259.798584 285.33429 L 258.840057 284.622498 L 257.957428 283.872742 L 257.350037 283.293823 L 256.970428 282.876251 L 256.619293 282.458679 L 256.287109 282.022095 L 255.992905 281.57605 L 255.727173 281.120483 L 255.489914 280.636475 L 255.290604 280.133484 L 255.138763 279.621002 L 255.024872 279.09903 L 254.948944 278.548584 L 254.939453 277.998108 L 254.948944 277.732391 L 254.948944 277.409729 L 255.015381 276.697937 L 255.138763 275.995636 L 255.328568 275.312317 L 255.575317 274.638489 L 255.869522 274.012115 L 256.220673 273.395233 L 256.609802 272.825806 L 257.046356 272.265869 L 257.520874 271.734375 L 258.023865 271.221893 L 258.583801 270.737885 L 259.153229 270.272858 L 259.760651 269.836304 L 260.396515 269.418701 L 261.051331 269.020111 L 261.73465 268.640503 L 262.446442 268.279846 L 263.537872 267.767365 L 265.065826 267.169464 L 266.631775 266.628479 L 268.254639 266.153961 L 269.896484 265.74588 L 271.557343 265.404236 L 273.21817 265.128998 L 274.907471 264.891724 Z"/>
        <g id="g60-copy">
            <path id="path48" fill="#ffffff" stroke="#000000" stroke-width="0.468118" d="M 123.910004 157.873444 C 123.436424 187.201935 123.425484 216.535004 123.799866 245.863678 C 124.160545 274.121002 125.4562 296.17334 137.318344 313.430054 C 151.607529 334.217499 175.437225 349.235626 206.096222 363.999573 C 236.792023 349.312378 260.659302 334.354004 275.000427 313.602356 C 286.905701 296.375427 288.256592 274.326416 288.687988 246.070068 C 289.135742 216.742462 289.198273 187.409439 288.798157 158.079834 Z"/>
            <mask id="mask1" maskUnits="userSpaceOnUse" maskContentUnits="userSpaceOnUse" mask-type="alpha">
                <path id="path1" fill="#ffffff" stroke="#000000" stroke-width="0.468118" d="M 123.910004 157.873444 C 123.436424 187.201935 123.425484 216.535004 123.799866 245.863678 C 124.160545 274.121002 125.4562 296.17334 137.318344 313.430054 C 151.607529 334.217499 175.437225 349.235626 206.096222 363.999573 C 236.792023 349.312378 260.659302 334.354004 275.000427 313.602356 C 286.905701 296.375427 288.256592 274.326416 288.687988 246.070068 C 289.135742 216.742462 289.198273 187.409439 288.798157 158.079834 Z"/>
            </mask>
            <g id="Group" mask="url(#mask1)">
                <g id="g62">
                    <g id="g63">
                        <g id="g64">
                            <g id="g65">
                                <path id="path50" fill="#000000" stroke="#ffffff" stroke-width="0.88649" d="M 206.166901 307.159943 L 199.978973 267.431213 C 199.494278 269.188293 198.509872 271.547455 196.438461 273.590637 C 193.830902 276.16272 189.107819 277.760681 186.037308 281.882507 C 182.845459 286.167236 187.150238 287.730377 184.163284 293.435181 C 182.485031 296.640442 175.643021 300.696411 175.643021 300.696411 C 175.643021 300.696411 178.608566 297.337891 180.06926 291.250366 C 180.914658 287.727081 178.183365 284.439392 180.179367 279.206512 C 182.17865 273.965027 185.613495 272.296021 186.748917 268.861511 C 187.812057 265.645569 187.622925 262.431824 187.342117 260.519867 L 153.377716 285.204315 L 177.017258 252.822342 C 175.432205 253.701904 173.102386 254.636627 170.269577 254.617157 C 166.607101 254.592072 162.148941 252.391647 157.063202 253.135025 C 151.776428 253.907776 153.711533 258.041779 147.565521 259.963623 C 144.112396 261.043427 136.405563 259.084229 136.405563 259.084229 C 136.405563 259.084229 140.88063 258.799164 146.218002 255.527466 C 149.307159 253.633911 149.685669 249.370926 154.797287 247.082031 C 159.917267 244.789474 163.538101 246.055389 166.769547 244.429626 C 169.803177 242.903412 171.937958 240.481506 173.089172 238.931427 L 131.554398 232.360352 L 171.169281 226.189743 C 169.433029 225.685593 167.148254 224.683868 165.17984 222.688217 C 162.607742 220.080704 161.00975 215.376328 156.887939 212.305878 C 152.603195 209.113953 151.040054 213.417526 145.335297 210.430542 C 142.13002 208.752319 138.092834 201.891556 138.092834 201.891556 C 138.092834 201.891556 141.432587 204.877136 147.520111 206.337769 C 151.043442 207.183212 154.349808 204.450668 159.582733 206.446671 C 164.824203 208.445923 166.493118 211.882019 169.927734 213.017487 C 173.143661 214.080612 176.338638 213.891449 178.250626 213.610611 L 153.509964 179.569916 L 185.94812 203.267059 C 185.069717 201.682053 184.152603 199.366989 184.172028 196.538162 C 184.197098 192.875656 186.397629 188.397476 185.654221 183.311737 C 184.881424 178.024979 180.729996 179.961273 178.808136 173.815338 C 177.728348 170.362137 179.704971 162.65538 179.704971 162.65538 C 179.704971 162.65538 179.972519 167.130402 183.244247 172.467804 C 185.137802 175.556931 189.399582 175.952988 191.6884 181.06459 C 193.981003 186.184525 192.73381 189.805435 194.359604 193.03685 C 195.861404 196.022003 198.230591 198.137375 199.782852 199.301315 L 206.353928 157.746536 L 212.561813 197.569138 C 213.052032 195.817108 214.031738 193.471008 216.082245 191.448334 C 218.689758 188.876312 223.412857 187.278336 226.483398 183.156494 C 229.675278 178.87178 225.371704 177.308655 228.358643 171.603851 C 230.036911 168.398544 236.878937 164.342621 236.878937 164.342621 C 236.878937 164.342621 233.91214 167.69989 232.451416 173.787415 C 231.606018 177.310745 234.338562 180.598328 232.34256 185.831268 C 230.343307 191.072708 226.907242 192.741699 225.77179 196.17627 C 224.734406 199.314316 224.890762 202.459976 225.160019 204.386581 L 259.144348 179.702164 L 235.334503 212.310242 C 236.918961 211.403183 239.312393 210.400436 242.251099 210.420624 C 245.913651 210.445679 250.373077 212.646133 255.45871 211.902756 C 260.745544 211.130005 258.810455 206.997208 264.95639 205.075394 C 268.409607 203.995651 276.115112 205.972275 276.115112 205.972275 C 276.115112 205.972275 271.640106 206.239853 266.302643 209.51152 C 263.21347 211.405106 262.836243 215.666855 257.72464 217.955704 C 252.60466 220.248306 248.983841 219.002365 245.752365 220.628159 C 242.794846 222.116028 240.678665 224.441299 239.507965 225.993866 L 280.967743 232.547363 L 241.032608 238.772583 C 242.800613 239.242996 245.246216 240.227234 247.340851 242.350769 C 249.912918 244.958328 251.51088 249.662704 255.632736 252.733185 C 259.91745 255.925018 261.481842 251.6203 267.186615 254.607239 C 270.391937 256.285431 274.427826 263.147461 274.427826 263.147461 C 274.427826 263.147461 271.089386 260.180664 265.001801 258.719971 C 261.478516 257.874573 258.17215 260.607117 252.939194 258.611084 C 247.697739 256.611786 246.028839 253.156952 242.594223 252.021576 C 239.447159 250.981201 236.30899 251.157883 234.383881 251.428589 L 259.012146 285.336548 L 226.441528 261.546722 C 227.35672 263.129974 228.370239 265.546783 228.349884 268.519623 C 228.324783 272.182129 226.124359 276.64035 226.867737 281.726013 C 227.640488 287.012848 231.792023 285.077759 233.713791 291.223694 C 234.793579 294.676849 232.816956 302.383636 232.816956 302.383636 C 232.816956 302.383636 232.549377 297.90863 229.27771 292.571259 C 227.384125 289.482086 223.122406 289.084778 220.833527 283.973236 C 218.54097 278.85321 219.786865 275.232391 218.161148 272.000916 C 216.654724 269.006714 214.272324 266.899292 212.720322 265.73761 L 206.166901 307.159943 Z"/>
                            </g>
                            <g id="g66"/>
                            <g id="g67"/>
                            <g id="g68"/>
                        </g>
                        <g id="g69">
                            <g id="g70"/>
                            <g id="g71"/>
                            <g id="g72"/>
                            <g id="g73"/>
                        </g>
                    </g>
                    <g id="g74">
                        <path id="path51" fill="#000000" stroke="none" d="M 206.218597 265.890808 C 187.751648 265.867737 172.800339 250.878967 172.823456 232.412003 C 172.846573 213.945114 187.835358 198.992523 206.302277 199.015656 C 224.769211 199.038788 239.721756 214.028778 239.698624 232.495712 C 239.675522 250.962646 224.685486 265.91391 206.218597 265.890808 Z"/>
                        <path id="path52" fill="none" stroke="#ffffff" stroke-width="2.068518" d="M 206.300735 200.541702 C 187.539352 200.518188 173.6866 214.746643 173.66452 232.41272 C 173.64241 250.078827 187.459412 264.341858 206.220871 264.365326 C 224.982315 264.388855 238.835007 250.1604 238.857117 232.494354 C 238.879211 214.828217 225.06218 200.56514 206.300735 200.541702 Z"/>
                    </g>
                </g>
            </g>
            <path id="path53" fill="#ffffff" stroke="none" d="M 123.680656 233.23671 C 123.718262 237.445648 123.746185 241.655273 123.799889 245.864105 C 124.160583 274.121429 125.456947 296.174072 137.319107 313.430786 C 151.608276 334.218231 175.436554 349.235992 206.095505 364 C 236.79129 349.312775 260.658875 334.354706 275.000061 313.603119 C 286.905365 296.37616 288.256927 274.326843 288.688354 246.070496 C 288.752563 241.861801 288.789337 237.652252 288.837494 233.44339 Z"/>
            <mask id="mask2" maskUnits="userSpaceOnUse" maskContentUnits="userSpaceOnUse" mask-type="alpha">
                <path id="path2" fill="#ffffff" stroke="none" d="M 123.680656 233.23671 C 123.718262 237.445648 123.746185 241.655273 123.799889 245.864105 C 124.160583 274.121429 125.456947 296.174072 137.319107 313.430786 C 151.608276 334.218231 175.436554 349.235992 206.095505 364 C 236.79129 349.312775 260.658875 334.354706 275.000061 313.603119 C 286.905365 296.37616 288.256927 274.326843 288.688354 246.070496 C 288.752563 241.861801 288.789337 237.652252 288.837494 233.44339 Z"/>
            </mask>
            <g id="g1" mask="url(#mask2)">
                <path id="Crest-copy-3" fill="#000000" fill-rule="evenodd" stroke="none" d="M 177.133713 311.755493 C 176.633347 311.972504 176.132187 312.068726 175.935532 311.837708 C 175.711121 311.625488 175.541382 311.254883 175.81813 310.946442 C 175.956116 310.731812 176.123428 310.73996 176.263794 310.887695 C 176.320114 310.970978 176.489014 311.220764 176.350235 311.314575 C 177.129745 311.15152 177.291473 310.314117 176.39856 310.18988 C 176.42395 309.808746 177.430237 310.220245 177.362793 308.445831 C 175.497711 308.857758 176.312134 309.763 176.006058 309.848663 C 175.917999 309.180176 175.045471 309.325348 174.892715 310.11618 C 175.059235 310.003571 175.254288 309.993011 175.366913 310.159546 C 175.479523 310.32605 175.536621 310.530121 175.425629 310.605164 C 175.23291 310.97818 174.673889 310.749512 174.253586 310.427032 C 173.917358 310.169128 173.151855 309.635162 173.675186 308.674561 C 174.124023 309.09906 174.193298 309.739838 174.11084 309.916931 L 175.021133 308.451965 C 174.772141 308.741699 174.297943 308.698364 173.794388 308.43222 C 174.154388 308.067413 174.626999 307.869141 175.0457 307.950012 L 174.262222 307.509186 L 173.402878 306.836487 C 173.572586 307.207062 173.752869 307.772736 173.561005 308.26651 C 173.112946 307.962799 172.849411 307.45343 172.958832 307.13678 L 172.076294 308.582916 C 172.242813 308.470337 172.910492 308.261444 173.441788 308.50885 C 172.834381 309.404968 172.164322 309.251373 171.800339 309.012177 C 171.492661 308.856262 170.90506 308.525604 171.003098 307.893066 C 171.084778 307.595154 171.418594 307.490753 171.642242 307.582214 C 171.726303 307.646698 171.92215 307.756927 171.839691 307.934021 C 172.590637 307.668823 172.528748 306.740051 171.683975 306.866394 C 171.653824 306.522766 172.630768 306.711487 172.24826 305.069244 C 170.496597 305.768433 171.505295 306.542358 171.227753 306.730042 C 170.944641 306.072113 170.100647 306.319336 170.199265 307.182861 C 170.365784 307.070251 170.560837 307.059631 170.701218 307.207397 C 170.869339 307.336395 170.787674 307.634277 170.732956 307.792603 C 170.53949 308.0448 170.288879 308.092896 169.953476 307.95575 C 169.645798 307.799805 169.392822 307.485504 169.490067 306.732178 C 169.685135 306.721588 169.8255 306.869354 169.910355 307.054688 L 170.180725 305.779816 C 170.041962 305.873627 169.791367 305.921783 169.596298 305.932343 C 169.678757 305.75528 169.788986 305.559357 170.205292 305.277832 L 169.004715 304.997711 C 169.205353 305.832703 169.110519 306.948425 169.08754 307.691956 C 168.89325 307.823364 168.671219 307.97348 168.562607 308.41095 C 170.809387 309.520538 174.103226 311.580292 175.991608 313.296265 C 176.324661 313.071045 176.518143 312.818878 176.348419 312.448303 C 177.071609 312.201874 178.349884 311.5802 179.075455 311.696228 L 178.167999 310.772949 C 178.08551 310.950043 178.003052 311.127136 177.865097 311.341766 C 177.780228 311.156464 177.75087 310.933655 177.806396 310.896118 L 176.75177 311.609314 C 176.853806 311.58075 176.965591 311.626495 177.133713 311.755493 Z M 169.425232 303.944885 C 169.230942 304.076294 169.121521 304.392944 169.290436 304.642731 C 169.459351 304.892487 169.738464 304.946411 169.988266 304.777496 C 170.238052 304.608612 170.291962 304.329437 170.123047 304.079712 C 169.954132 303.829926 169.675018 303.77594 169.425232 303.944885 Z M 174.378693 304.03302 C 174.628479 303.864136 174.963882 304.001282 175.132797 304.251068 C 175.245422 304.417572 175.246216 304.538391 175.191513 304.696686 C 175.302521 304.621643 175.442078 304.648621 175.553101 304.573547 C 175.914703 304.450317 176.163681 304.160645 176.412659 303.870972 C 175.881378 303.623566 175.268402 303.674011 175.129608 303.767914 L 175.929718 302.49884 C 175.848038 302.796722 176.130356 303.333862 176.50412 303.647308 C 176.696793 303.274323 176.80542 302.836884 176.709198 302.335724 L 177.866425 303.090088 C 177.421585 303.269531 177.060791 303.51355 176.811798 303.803223 C 177.259842 304.106934 177.734024 304.150299 177.927505 303.898102 L 177.071136 305.083893 C 177.125854 304.925568 177.010849 304.396667 176.664841 304.064392 C 176.472153 304.437408 176.391296 304.856079 176.393677 305.218445 C 176.478546 305.403717 176.50708 305.505798 176.507874 305.626587 C 176.562576 305.468262 176.75766 305.457703 176.897217 305.484619 C 177.176346 305.538544 177.345261 305.78833 177.291367 306.067444 C 177.237442 306.346558 176.987656 306.515503 176.708542 306.461578 C 176.513458 306.472137 176.373077 306.324371 176.315979 306.120331 C 176.260483 306.157898 176.178024 306.334991 176.067001 306.410065 C 175.594391 306.608276 175.036133 306.500458 174.773376 306.111969 C 174.575928 305.760162 174.573532 305.397736 174.793976 305.005981 C 174.627457 305.118622 174.403824 305.02713 174.234924 304.777374 C 174.131302 304.564331 174.184418 304.164398 174.378693 304.03302 Z M 170.199142 302.936218 C 170.393433 302.80484 170.728043 302.821167 170.896957 303.070984 C 171.038116 303.339539 171.040512 303.701904 170.790726 303.87085 C 170.48465 303.956482 170.205505 303.902588 170.036591 303.652832 C 169.895432 303.384216 169.977127 303.086365 170.199142 302.936218 Z M 171.339432 302.529114 C 171.589203 302.360168 171.868347 302.414124 172.037262 302.663879 C 172.206161 302.913666 172.124496 303.211548 171.902466 303.361725 C 171.652695 303.530609 171.37355 303.476685 171.204666 303.226959 C 171.035751 302.977173 171.117416 302.67923 171.339432 302.529114 Z M 172.520432 302.660675 C 172.770218 302.491791 173.105652 302.628937 173.274567 302.878723 C 173.387161 303.045288 173.305496 303.34317 173.083481 303.493347 C 172.833694 303.662231 172.554581 303.608307 172.385666 303.358521 C 172.216751 303.108765 172.270645 302.82959 172.520432 302.660675 Z M 173.556076 303.295013 C 173.805862 303.126129 174.141296 303.263306 174.253906 303.42984 C 174.422821 303.679626 174.368896 303.95874 174.119125 304.127686 C 173.869339 304.29657 173.590225 304.242645 173.42131 303.992859 C 173.308685 303.826324 173.334061 303.44519 173.556076 303.295013 Z M 179.383347 310.476868 C 179.329437 310.756012 179.051895 310.943665 178.800522 310.871033 C 178.577698 310.90036 178.352493 310.567261 178.378632 310.306915 C 178.432556 310.027802 178.710098 309.840149 178.989212 309.894012 C 179.240601 309.966705 179.409515 310.216492 179.383347 310.476868 Z M 179.990738 309.58078 C 180.044662 309.301666 179.819427 308.968628 179.540314 308.914703 C 179.317474 308.944031 179.067719 309.112915 178.957489 309.308838 C 178.93132 309.569183 179.15654 309.902222 179.407913 309.974915 C 179.630737 309.945587 179.880539 309.776642 179.990738 309.58078 Z M 179.954224 308.270782 C 179.900299 308.549896 179.622772 308.73761 179.371399 308.664917 C 179.092285 308.610992 178.92337 308.361206 178.949539 308.100861 C 179.003433 307.821747 179.28096 307.634033 179.560104 307.687988 C 179.830231 307.788391 180.008148 307.991638 179.954224 308.270782 Z M 179.325119 307.28064 C 179.271179 307.559814 179.021408 307.728699 178.742294 307.674774 C 178.46315 307.62085 178.294235 307.371094 178.348145 307.091949 C 178.374313 306.831573 178.65184 306.643921 178.930969 306.697815 C 179.153809 306.668488 179.379013 307.001526 179.325119 307.28064 Z M 178.344177 306.487976 C 178.370316 306.22757 178.201401 305.977844 177.950058 305.90509 C 177.670914 305.851227 177.393387 306.03894 177.339462 306.318054 C 177.313293 306.578369 177.482208 306.828156 177.761353 306.882111 C 178.012726 306.954773 178.290253 306.76709 178.344177 306.487976 Z M 175.464615 306.655609 L 174.856415 307.430939 L 174.128448 306.952484 L 174.596283 306.029419 L 174.624847 306.1315 C 174.793732 306.381287 175.10141 306.537231 175.464615 306.655609 Z"/>
                <g id="g76">
                    <path id="path55" fill="#000000" stroke="none" d="M 159.291824 335.996002 C 159.291824 335.996002 166.246857 330.507568 170.288376 330.512634 C 176.320511 330.520233 180.820419 337.902802 186.85257 337.910339 C 192.884766 337.917908 197.403107 330.54657 203.435226 330.554199 C 209.467346 330.561707 213.9673 337.944275 219.99942 337.951813 C 226.03157 337.95932 230.549881 330.588104 236.582031 330.595612 C 241.89032 330.602234 245.91806 336.416748 250.941574 337.794037 C 251.626633 337.981812 243.268646 343.296295 243.268646 343.296295 C 243.268646 343.296295 238.982254 340.694275 236.569427 340.691223 C 230.537262 340.683716 226.018921 348.055023 219.986755 348.047424 C 213.954636 348.039886 209.454727 340.657318 203.422562 340.649719 C 197.390457 340.642212 192.872131 348.013489 186.839935 348.00592 C 180.80777 347.998413 176.307877 340.615814 170.275742 340.608246 C 169.008987 340.606689 166.44162 341.433289 166.44162 341.433289 Z M 133.986237 307.811768 C 133.986237 307.811768 135.43927 307.420349 136.283768 307.421326 C 142.315933 307.428894 146.815857 314.811462 152.847961 314.819031 C 158.880112 314.826599 163.398438 307.455322 169.430603 307.46283 C 175.462738 307.470367 179.962646 314.852936 185.994781 314.860535 C 192.026947 314.868073 196.545288 307.496735 202.577423 307.504303 C 208.609589 307.511902 213.109497 314.89444 219.141617 314.902008 C 225.173782 314.909546 229.692078 307.538269 235.724274 307.545837 C 241.756393 307.553345 246.257507 314.935974 252.289719 314.943481 C 258.321869 314.951019 262.84021 307.579742 268.872375 307.58725 C 272.009064 307.591248 276.460938 311.50647 276.460938 311.50647 L 271.797485 318.15918 C 271.797485 318.15918 270.066101 317.684448 268.859711 317.682861 C 262.827545 317.675354 258.309204 325.046661 252.2771 325.039093 C 246.244888 325.031555 241.743744 317.648956 235.711624 317.641388 C 229.679459 317.63385 225.161163 325.005127 219.128967 324.99762 C 213.096848 324.990051 208.596939 317.607422 202.564819 317.599915 C 196.532654 317.592377 192.014313 324.963654 185.982147 324.956146 C 179.950012 324.948608 175.450104 317.56601 169.417969 317.558441 C 163.385803 317.550903 158.867462 324.92215 152.835327 324.914673 C 148.673172 324.909424 141.65918 319.166595 141.65918 319.166595 Z M 127.543762 290.431396 C 134.485794 289.253418 136.199463 283.26825 141.633804 283.275085 C 147.665955 283.282623 152.165894 290.665192 158.197968 290.672729 C 164.230179 290.680298 168.748444 283.309021 174.780655 283.316528 C 180.812775 283.324097 185.312653 290.706696 191.344818 290.714172 C 197.377029 290.721802 201.895325 283.350525 207.927444 283.358032 C 213.959595 283.36557 218.459549 290.748169 224.491669 290.755707 C 230.523788 290.763275 235.04213 283.391998 241.074295 283.399536 C 247.106461 283.407104 251.606323 290.789612 257.638428 290.797241 C 263.670654 290.80481 268.188995 283.433411 274.22113 283.440979 C 278.684937 283.446564 285.229828 289.595032 285.229828 289.595032 L 282.804626 298.221008 C 282.804626 298.221008 277.767426 293.541046 274.208496 293.536682 C 268.176331 293.529083 263.65802 300.90036 257.625824 300.892822 C 251.593658 300.885315 247.093796 293.502686 241.06163 293.495117 C 235.02951 293.48761 230.511185 300.858887 224.479019 300.851349 C 218.446899 300.843781 213.946991 293.461212 207.914825 293.453644 C 201.882706 293.446075 197.364365 300.817413 191.332184 300.809875 C 185.300018 300.802277 180.80014 293.419708 174.768021 293.41217 C 168.735809 293.404602 164.217545 300.77594 158.185333 300.768311 C 152.153259 300.760803 147.65332 293.378235 141.62117 293.370697 C 137.097076 293.36499 130.621475 299.581207 130.621475 299.581207 C 130.621475 299.581207 127.47364 290.443329 127.543762 290.431396 Z M 125.559799 278.654144 L 124.636154 268.588379 C 133.7388 268.599854 135.629272 261.214203 141.661423 261.221802 C 147.693558 261.22934 152.193497 268.611908 158.225616 268.619507 C 164.257751 268.627014 168.776047 261.255707 174.808228 261.263275 C 180.840347 261.270813 185.340286 268.653412 191.372391 268.66095 C 197.404602 268.668518 201.922943 261.297241 207.955063 261.304749 C 213.987228 261.312286 218.487167 268.694946 224.519257 268.702423 C 230.551407 268.709991 235.069702 261.338715 241.101868 261.346222 C 247.134033 261.35376 251.633942 268.736389 257.666107 268.743927 C 263.698212 268.751465 268.216614 261.380188 274.248718 261.387695 C 279.557037 261.394379 287.979523 268.488678 287.979523 268.488678 L 286.930847 278.309082 C 286.930847 278.309082 279.242767 271.489624 274.236053 271.483337 C 268.203979 271.475769 263.685608 278.847046 257.653442 278.839539 C 251.621292 278.832001 247.121414 271.449463 241.089264 271.441833 C 235.057098 271.434326 230.538757 278.805603 224.506592 278.798065 C 218.474518 278.790466 213.974609 271.407928 207.942444 271.40036 C 201.910278 271.392822 197.391953 278.764099 191.359756 278.756531 C 185.327652 278.749023 180.827713 271.366394 174.795593 271.358826 C 168.763412 271.351349 164.245117 278.722656 158.212982 278.715027 C 152.180862 278.70752 147.680923 271.324951 141.648788 271.317413 C 135.616638 271.309845 134.662445 278.665527 125.559799 278.654144 Z M 124.182991 256.650879 L 123.961807 246.351913 C 133.064453 246.363342 135.656906 239.16095 141.688995 239.168472 C 147.721176 239.176041 152.221069 246.558594 158.253189 246.566162 C 164.2854 246.57373 168.803665 239.202377 174.835831 239.209991 C 180.867996 239.21756 185.367874 246.600082 191.40004 246.607697 C 197.432175 246.615219 201.950516 239.243942 207.982681 239.251465 C 214.014847 239.258987 218.514755 246.641632 224.546829 246.64917 C 230.579041 246.656693 235.097366 239.285416 241.129532 239.292938 C 247.161606 239.300461 251.661514 246.683105 257.693695 246.690643 C 263.72583 246.698166 268.244171 239.326889 274.276306 239.334457 C 279.825958 239.341339 288.894043 246.595642 288.894043 246.595642 L 288.654572 256.656525 C 288.654572 256.656525 279.75296 249.436951 274.263702 249.430054 C 268.231567 249.422485 263.713196 256.793762 257.68103 256.786255 C 251.648911 256.778687 247.149002 249.396149 241.116882 249.38855 C 235.084717 249.381012 230.566376 256.752319 224.53421 256.744751 C 218.502136 256.737244 214.002182 249.354645 207.970032 249.347076 C 201.937866 249.339539 197.419571 256.710815 191.387405 256.703247 C 185.35524 256.695679 180.855362 249.31311 174.823196 249.305603 C 168.791031 249.298065 164.272751 256.669342 158.240555 256.661774 C 152.208435 256.654236 147.708542 249.271637 141.676361 249.264114 C 135.644272 249.256561 133.285614 256.662201 124.182991 256.650879 Z"/>
                </g>
                <path id="path56" fill="#ffffff" stroke="#000000" stroke-width="1.773961" d="M 205.982147 238.563705 L 118.277046 304.811798 C 119.799271 314.414398 122.354515 323.059723 126.628281 330.848328 L 205.788681 271.039276 L 284.222046 331.15686 C 288.587097 323.384979 291.247467 314.752014 292.883209 305.154877 Z"/>
            </g>
            <g id="g77">
                <path id="path58" fill="none" stroke="#000000" stroke-width="1.586702" d="M 123.910004 157.873489 C 123.436424 187.201935 123.425484 216.535004 123.799866 245.863617 C 124.160545 274.121002 125.4562 296.173309 137.318359 313.430084 C 151.607529 334.217499 175.437225 349.235626 206.096191 363.999573 C 236.792023 349.312378 260.659302 334.354004 275.000427 313.602417 C 286.905762 296.375427 288.256592 274.326416 288.687988 246.070068 C 289.135742 216.742462 289.198273 187.409439 288.798157 158.07988 Z M 123.744751 232.776199 L 288.522003 233.216522"/>
            </g>
            <path id="Star" fill="#000000" fill-rule="evenodd" stroke="none" d="M 206.233261 246.689026 L 204.300339 253.751755 L 196.986816 253.389252 L 203.106598 257.410126 L 200.501862 264.253632 L 206.21701 259.675964 L 211.92067 264.267914 L 209.33313 257.417938 L 215.462906 253.412354 L 208.148544 253.756546 Z"/>
            <path id="Crest-copy" fill="#000000" fill-rule="evenodd" stroke="none" d="M 248.826019 290.787811 C 248.257736 290.96167 248.538055 290.577637 247.759567 291.039398 C 247.339142 291.615356 247.985153 291.939758 247.704926 292.32373 C 247.564774 292.515778 247.354568 292.803741 247.136688 292.497498 C 246.918701 292.191315 247.066605 292.593536 246.498322 292.767273 C 245.579758 293.421021 244.575684 292.982422 244.645721 292.886414 C 244.785889 292.694458 245.564285 292.232727 245.066162 292.310486 C 244.637985 292.292267 244.427795 292.5802 243.99971 292.562042 C 243.353638 292.23764 243.065674 292.027405 242.777695 291.817261 C 242.419647 291.703003 241.77359 291.378601 241.267685 290.862183 C 241.337769 290.766235 241.267685 290.862183 240.403732 290.231537 C 239.827789 289.811157 239.609894 289.504974 239.033905 289.084625 C 240.590836 288.161072 239.960251 289.025024 241.454788 288.791656 C 241.59491 288.599701 242.388779 289.326294 242.536636 289.728455 C 242.466599 289.824493 242.762268 290.628845 243.688568 290.569275 C 245.759079 290.756348 245.471115 290.546143 245.315567 289.549744 C 245.735947 288.973785 247.160416 288.836456 247.518509 288.950653 C 248.374725 288.987061 248.234604 289.179016 248.670425 289.791504 C 248.818283 290.193665 249.036179 290.499878 248.826019 290.787811 Z M 240.009888 285.530029 C 238.079529 285.150909 235.723816 283.137146 235.646042 282.638977 C 235.716064 282.542999 235.786148 282.447021 236.424515 282.177246 C 236.564636 281.985229 236.84491 281.601227 237.343079 281.523499 C 237.343079 281.523499 237.055099 281.313293 236.767136 281.103058 C 236.339005 281.0849 235.708374 281.948853 234.999969 282.314545 C 234.431763 282.488373 234.431763 282.488373 233.793442 282.758179 C 232.72699 283.009644 232.72699 283.009644 232.586838 283.20163 C 232.158752 283.183502 232.446716 283.393616 231.730621 283.165253 C 231.372528 283.051056 231.582764 282.763031 231.224716 282.648865 C 230.010452 282.498199 229.076416 281.963562 228.788437 281.753357 C 228.212463 281.332977 228.702927 280.661011 228.274841 280.642822 C 227.706558 280.816559 227.418533 280.606354 226.694794 279.783783 C 226.188843 279.267365 227.333069 279.514038 227.115173 279.207855 C 226.5392 278.787354 225.900864 279.05719 225.605164 278.252808 C 225.099304 277.736389 226.313568 277.887085 225.4496 277.256409 C 224.873672 276.835999 224.741211 277.622253 224.383194 277.507996 C 224.025101 277.393799 224.678864 278.312378 224.320816 278.198181 C 224.032837 277.987976 222.88092 277.147125 223.511505 276.283203 C 223.861862 275.803223 224.367767 276.31958 224.21991 275.917419 C 223.994278 275.01712 223.426025 275.190796 223.418289 274.596649 C 223.270432 274.194458 222.639847 275.058411 222.702194 274.368225 C 223.052551 273.888245 223.683136 273.024292 224.547134 273.654877 C 224.835098 273.865143 225.06073 274.765533 225.130768 274.669495 C 225.839218 274.303741 224.975266 273.673157 225.045288 273.577148 C 225.395645 273.097168 224.477051 273.750916 224.827408 273.270905 C 225.247787 272.694946 226.033966 272.827393 226.321945 273.037628 C 227.185898 273.668213 226.485184 274.628204 226.204956 275.012146 C 225.854599 275.492065 226.936493 276.428894 227.512436 276.849365 C 228.306305 277.575897 229.465927 279.010925 229.753952 279.2211 C 230.905869 280.06192 230.758011 279.659698 231.186142 279.677917 C 231.902252 279.906342 231.824463 279.408173 232.17482 278.928223 C 232.026962 278.526001 232.237167 278.238037 232.237167 278.238037 C 231.87912 278.123779 231.318558 278.891785 230.952774 278.18338 C 230.081131 276.958649 231.591095 277.913574 230.57933 276.880798 C 230.073471 276.364441 229.482056 274.755615 230.057999 275.176086 C 230.346008 275.38623 230.774139 275.404449 230.338272 274.792114 C 229.614471 273.969482 229.676819 273.279297 229.957092 272.895325 C 230.027161 272.799347 230.821045 273.525909 230.385178 272.913544 C 229.653687 271.496765 230.509933 271.533203 230.509933 271.533203 C 231.568649 270.687439 230.214233 270.728821 229.778366 270.116455 C 229.272491 269.600037 229.287888 270.788422 229.069992 270.482178 C 228.914398 269.485779 229.97316 268.640015 230.479065 269.156464 C 230.767044 269.366699 231.125092 269.480835 231.335281 269.192871 C 231.545517 268.904877 231.187424 268.790649 231.109695 268.29248 C 231.249817 268.100525 230.681564 268.274292 230.681564 268.274292 C 231.031876 267.794281 231.670197 267.524567 232.246185 267.944977 C 233.110138 268.575562 232.33165 269.037323 232.619629 269.247528 C 233.265686 269.57196 233.257996 268.977783 233.398117 268.785797 C 233.966354 268.612 233.250259 268.383575 233.390411 268.191589 C 234.106506 268.419983 234.900391 269.146606 234.129639 270.202545 C 233.709259 270.778534 232.775223 270.243896 232.424866 270.723846 C 231.794235 271.58786 232.455734 273.100555 232.533508 273.598755 C 232.681366 274.000977 232.401093 274.384949 232.984726 275.399597 C 233.272705 275.609741 232.572037 276.569702 232.860046 276.779907 C 232.860046 276.779907 233.062546 275.897705 233.342819 275.513733 C 234.175949 273.76767 236.96254 274.183105 236.96254 274.183105 C 236.96254 274.183105 237.024918 273.49295 237.305191 273.108948 C 237.873398 272.935181 238.01355 272.743195 238.371597 272.857391 C 237.935776 272.245026 238.496277 271.477051 239.064575 271.303284 C 239.492691 271.321533 240.224197 272.738281 239.873886 273.218231 C 240.014038 273.026245 240.294266 272.642273 240.294266 272.642273 C 240.294266 272.642273 241.298386 273.080902 241.664124 273.789307 C 242.387924 274.611877 242.115387 275.590027 242.115387 275.590027 C 242.333282 275.896301 241.975281 275.782013 241.477066 275.859802 C 242.045303 275.686066 243.204926 277.120972 242.924698 277.505005 C 242.644424 277.888947 241.648056 278.044556 241.282303 277.336182 C 241.142197 277.528168 240.931946 277.816101 240.363663 277.989899 C 240.013351 278.46991 239.36734 278.145416 239.36734 278.145416 C 239.36734 278.145416 239.234909 278.931641 238.526505 279.297363 C 238.456467 279.393433 238.744446 279.603607 238.744446 279.603607 C 239.03241 279.813812 239.382721 279.333801 239.670746 279.544006 C 241.398651 280.805267 243.038269 282.590637 243.614212 283.010986 C 245.054138 284.062012 246.826218 285.061157 250.710129 287.601837 C 252.726013 289.073242 253.231873 289.58963 255.439728 291.201202 C 256.303741 291.831787 257.159943 291.868225 257.580322 291.292236 C 258.421143 290.14035 253.994965 287.939484 250.757034 285.723267 C 250.181091 285.302856 246.393173 282.832306 244.953232 281.78125 C 243.225372 280.520081 243.279968 279.235687 243.840515 278.467712 C 245.311935 276.451843 249.683517 279.937042 250.695374 280.969849 C 250.983307 281.180054 252.851364 282.249268 254.483292 283.44043 C 254.771255 283.650574 255.277161 284.167023 255.277161 284.167023 C 255.207092 284.263062 253.058746 283.577728 253.922745 284.208405 C 255.938629 285.679779 256.141083 284.797638 258.348969 286.409119 C 259.788879 287.460175 261.000366 289.227295 260.720123 289.611298 C 260.720123 289.611298 260.572235 289.209137 259.708313 288.578552 C 258.84436 287.947876 257.349823 288.181213 254.853958 286.359436 C 251.974121 284.257385 251.984634 283.235107 249.680786 281.553528 C 248.528824 280.712708 245.239075 278.164307 244.468323 279.220245 C 244.047943 279.796204 244.055634 280.390442 245.20755 281.231201 C 246.935471 282.492462 248.349487 283.37738 251.011398 285.173279 C 253.891235 287.275269 260.107727 290.047119 258.426086 292.351013 C 257.655334 293.406952 255.865082 292.835876 254.42514 291.784821 C 252.121292 290.103271 252.549423 290.12146 251.903397 289.797058 C 253.203186 291.040039 252.65033 292.402161 253.226303 292.822601 L 253.514282 293.032837 C 254.378235 293.663422 256.02066 293.832306 256.308655 294.042419 C 256.596619 294.252625 256.246246 294.732605 256.10614 294.924591 C 255.966034 295.116608 257.11795 295.957428 255.638855 297.37912 C 254.93045 297.744904 255.202988 296.766754 254.634735 296.940521 C 254.564651 297.036499 254.642471 297.534668 254.432236 297.822693 C 254.222046 298.110687 254.019547 298.992828 253.37352 298.668427 C 252.229294 298.421814 253.443558 298.572449 252.867615 298.152008 C 252.291641 297.731598 252.15152 297.923584 251.653305 298.001404 C 250.93721 297.772949 250.073257 297.142334 249.567352 296.625946 C 249.279419 296.415802 249.637436 296.529968 249.279419 296.415802 C 248.057373 295.670959 247.551514 295.154541 247.263504 294.944336 C 247.964172 293.984344 248.329956 294.69281 248.968231 294.422974 C 249.038361 294.327026 249.396408 294.441223 249.972397 294.861572 C 250.836349 295.492249 250.127899 295.857971 250.773956 296.182434 C 252.283936 297.137451 254.261246 295.637939 253.397293 295.007385 C 252.603424 294.280701 252.758972 295.277069 250.743134 293.805725 C 249.879181 293.175049 249.723587 292.178711 249.498001 291.27832 C 249.272324 290.37793 248.828812 289.171417 248.540787 288.961182 C 243.645081 285.387726 242.866638 285.849487 240.009888 285.530029 Z M 235.156204 277.867371 C 235.28862 277.081177 236.619919 275.257294 236.697693 275.755432 C 236.915634 276.061676 237.281372 276.77002 237.631729 276.2901 C 238.199966 276.116333 237.694107 275.599915 237.406143 275.389709 C 237.686371 275.005737 238.122192 275.618103 238.340088 275.924255 C 238.846039 276.440735 238.923767 276.938904 238.425598 277.016663 C 238.495682 276.920654 238.129898 276.21228 237.919693 276.500275 C 237.281372 276.77002 237.717194 277.382446 238.005173 277.592682 C 238.293137 277.802856 236.09024 278.401947 235.156204 277.867371 Z M 239.694519 275.882935 C 239.764587 275.786926 239.764587 275.786926 239.764587 275.786926 C 240.052612 275.997162 240.488434 276.609558 240.636292 277.011749 C 239.990219 276.687347 239.997955 277.281555 239.49205 276.765137 C 239.344162 276.362946 239.484314 276.170898 239.694519 275.882935 Z M 239.040802 274.964355 C 238.900681 275.156342 238.472549 275.138123 238.324692 274.735962 C 237.818787 274.219574 238.316956 274.141785 238.667313 273.661804 C 238.81517 274.063965 238.962982 274.466187 239.180908 274.772369 Z"/>
            <path id="path3" fill="#000000" fill-rule="evenodd" stroke="none" d="M 163.635361 290.887482 C 164.20845 291.044708 163.917099 290.669006 164.708694 291.10791 C 165.145676 291.671387 164.509338 292.014465 164.800659 292.390137 C 164.946335 292.577972 165.164841 292.85968 165.373718 292.547272 C 165.582657 292.234894 165.446548 292.641266 166.019623 292.798431 C 166.956848 293.42514 167.947754 292.95752 167.874908 292.863586 C 167.729218 292.67572 166.937744 292.236877 167.437927 292.30011 C 167.865372 292.26944 168.083862 292.551178 168.511246 292.520508 C 169.147568 292.17749 169.429321 291.958984 169.71106 291.740479 C 170.065628 291.615936 170.701965 291.272858 171.192627 290.741974 C 171.119812 290.648041 171.192627 290.741974 172.037872 290.086456 C 172.601379 289.649475 172.810287 289.337097 173.373779 288.900116 C 171.790634 288.022278 172.446106 288.867493 170.945419 288.677734 C 170.799774 288.489868 170.027313 289.239227 169.891266 289.64563 C 169.964096 289.739532 169.69191 290.552185 168.764267 290.519592 C 166.700073 290.766785 166.981827 290.548279 167.108292 289.54776 C 166.671356 288.984314 165.243484 288.888458 164.888855 289.013062 C 164.034042 289.074341 164.179733 289.262238 163.761871 289.886993 C 163.625778 290.293335 163.41687 290.605774 163.635361 290.887482 Z M 172.294785 285.375427 C 174.213318 284.940308 176.509476 282.858978 176.572693 282.358673 C 176.499908 282.264771 176.427063 282.170837 175.781174 281.919769 C 175.635513 281.731995 175.344193 281.356232 174.843948 281.29303 C 174.843948 281.29303 175.125702 281.074554 175.407455 280.856049 C 175.834854 280.825348 176.490326 281.670624 177.209061 282.015594 C 177.782089 282.172821 177.782089 282.172821 178.427979 282.423889 C 179.501312 282.644348 179.501312 282.644348 179.646988 282.832123 C 180.074387 282.801514 179.792648 283.02002 180.501801 282.770813 C 180.856384 282.646271 180.637894 282.364532 180.992462 282.239929 C 182.201843 282.054016 183.119919 281.492462 183.401657 281.273956 C 183.965164 280.836975 183.455368 280.179596 183.882767 280.148926 C 184.455841 280.306122 184.737595 280.087616 185.437164 279.244324 C 185.927826 278.713409 184.791229 278.993256 185.000183 278.680817 C 185.56369 278.243835 186.209579 278.494904 186.48175 277.682251 C 186.972412 277.151398 185.763016 277.337311 186.608276 276.681824 C 187.171768 276.244843 187.326996 277.026794 187.681549 276.902252 C 188.036148 276.77771 187.409393 277.714844 187.763977 277.590302 C 188.045731 277.371857 189.172684 276.497803 188.517212 275.652618 C 188.153076 275.183014 187.66243 275.713898 187.798523 275.307617 C 187.997833 274.401031 188.570892 274.558228 188.561356 273.96405 C 188.697418 273.557739 189.35289 274.402954 189.270493 273.714905 C 188.906372 273.245331 188.250885 272.400116 187.405624 273.055573 C 187.123886 273.274078 186.92453 274.180603 186.851715 274.086731 C 186.132935 273.741669 186.97821 273.086182 186.905396 272.99231 C 186.541229 272.522736 187.478439 273.149475 187.114304 272.679932 C 186.677322 272.116425 185.89534 272.271576 185.613586 272.490082 C 184.768311 273.14563 185.496643 274.084747 185.787964 274.460419 C 186.152115 274.929993 185.097946 275.897919 184.534454 276.3349 C 183.762039 277.084259 182.644669 278.552368 182.362915 278.770874 C 181.235916 279.644836 181.372009 279.238495 180.944565 279.269165 C 180.235413 279.51825 180.298676 279.018097 179.934509 278.548492 C 180.070602 278.142151 179.852112 277.860382 179.852112 277.860382 C 180.206711 277.735901 180.789383 278.487213 181.134354 277.768463 C 181.970016 276.518829 180.488449 277.517395 181.469772 276.455566 C 181.960434 275.924683 182.504791 274.299377 181.941299 274.736389 C 181.659561 274.954865 181.232132 274.985535 181.649979 274.360718 C 182.349533 273.517395 182.267166 272.829315 181.975815 272.453644 C 181.902969 272.359741 181.1306 273.109131 181.548431 272.484344 C 182.238449 271.046875 181.383606 271.108215 181.383606 271.108215 C 180.300735 270.29364 181.655777 270.295502 182.073624 269.670746 C 182.564285 269.139862 182.58342 270.328186 182.792374 270.015747 C 182.918884 269.015259 181.835968 268.200653 181.345306 268.731567 C 181.063599 268.950073 180.709 269.074615 180.490509 268.792847 C 180.272018 268.511108 180.626587 268.386566 180.689835 267.886292 C 180.544189 267.698517 181.117249 267.855652 181.117249 267.855652 C 180.753098 267.386078 180.107208 267.13501 179.543716 267.571991 C 178.698456 268.227509 179.490036 268.666382 179.208282 268.884857 C 178.57196 269.227936 178.562393 268.633789 178.416718 268.445984 C 177.843658 268.288727 178.552811 268.039642 178.40712 267.851746 C 177.697998 268.100952 176.925598 268.850311 177.726715 269.883423 C 178.163696 270.44696 179.081757 269.885284 179.445953 270.354858 C 180.10141 271.200165 179.484192 272.731567 179.420975 273.231781 C 179.284882 273.638123 179.576202 274.013763 179.022278 275.044922 C 178.74054 275.263397 179.468842 276.202576 179.187088 276.421051 C 179.187088 276.421051 178.95903 275.545074 178.66774 275.169495 C 177.784134 273.448303 175.010818 273.944672 175.010818 273.944672 C 175.010818 273.944672 174.928421 273.256622 174.6371 272.880951 C 174.063995 272.723785 173.918365 272.536011 173.563751 272.660492 C 173.981628 272.035736 173.398987 271.284393 172.825897 271.127228 C 172.398483 271.157928 171.708466 272.595337 172.072617 273.064911 C 171.926956 272.877075 171.635635 272.501434 171.635635 272.501434 C 171.635635 272.501434 170.64473 272.969055 170.299728 273.687805 C 169.600143 274.531097 169.901077 275.500854 169.901077 275.500854 C 169.692123 275.813354 170.046722 275.688721 170.546967 275.752014 C 169.973907 275.594849 168.856491 277.062958 169.147797 277.438629 C 169.439133 277.81427 170.43959 277.940796 170.784592 277.222107 C 170.930222 277.409912 171.148743 277.691681 171.721817 277.848816 C 172.085999 278.318359 172.72229 277.975342 172.72229 277.975342 C 172.72229 277.975342 172.877518 278.757263 173.596252 279.102325 C 173.669113 279.196228 173.38736 279.414703 173.38736 279.414703 C 173.105606 279.633179 172.74147 279.163635 172.459671 279.382141 C 170.769196 280.693054 169.182205 282.52533 168.618713 282.962341 C 167.209976 284.054779 165.467758 285.105042 161.659363 287.757599 C 159.687134 289.287048 159.196472 289.817963 157.036423 291.493042 C 156.191177 292.148529 155.336365 292.209839 154.899384 291.646301 C 154.025421 290.519379 158.385773 288.190735 161.557846 285.881195 C 162.121292 285.444275 165.83577 282.864532 167.244522 281.772095 C 168.934998 280.461151 168.843033 279.178955 168.260391 278.427551 C 166.730942 276.455292 162.462555 280.066162 161.481262 281.128052 C 161.199493 281.346497 159.363342 282.469604 157.766785 283.707703 C 157.485031 283.926208 156.994354 284.457092 156.994354 284.457092 C 157.067184 284.551056 159.194656 283.803589 158.349411 284.459045 C 156.377182 285.988464 156.149124 285.112549 153.989059 286.787689 C 152.580322 287.880157 151.420731 289.681732 151.712067 290.057434 C 151.712067 290.057434 151.84816 289.651123 152.69339 288.995636 C 153.538635 288.340179 155.039307 288.529877 157.481155 286.636292 C 160.29863 284.451385 160.258408 283.42984 162.512375 281.681946 C 163.639359 280.807983 166.853577 278.164978 167.654694 279.198059 C 168.091721 279.761566 168.101242 280.355713 166.974289 281.229675 C 165.283783 282.540619 163.896133 283.466309 161.287613 285.338806 C 158.470139 287.523712 152.336899 290.47525 154.084778 292.729248 C 154.885941 293.762268 156.658829 293.139465 158.067581 292.046967 C 160.321548 290.299011 159.894104 290.329712 160.530426 289.986633 C 159.267349 291.266907 159.859604 292.612366 159.296097 293.049347 L 159.014359 293.267822 C 158.169113 293.923279 156.532272 294.139893 156.250565 294.358398 C 155.968811 294.576904 156.332962 295.046448 156.478638 295.234283 C 156.624283 295.422119 155.49733 296.296082 157.017136 297.674133 C 157.735916 298.019196 157.434982 297.049377 158.008087 297.206451 C 158.080872 297.300446 158.017654 297.80072 158.236099 298.082397 C 158.45459 298.364166 158.682678 299.240082 159.319016 298.897003 C 160.455582 298.617188 159.246185 298.803101 159.809677 298.366119 C 160.373184 297.929138 160.518829 298.116943 161.019073 298.180206 C 161.728226 297.93103 162.573471 297.275574 163.064133 296.74469 C 163.345886 296.526184 162.991318 296.650787 163.345886 296.526184 C 164.5457 295.746124 165.036346 295.215271 165.318085 294.996765 C 164.589828 294.057648 164.244766 294.776367 163.598923 294.525238 C 163.526093 294.431335 163.171478 294.555908 162.607986 294.99292 C 161.762772 295.648346 162.481506 295.993347 161.845154 296.336426 C 160.363602 297.334991 158.343506 295.893646 159.188766 295.238159 C 159.961136 294.48877 159.834656 295.489258 161.806854 293.959808 C 162.6521 293.304352 162.77861 292.303833 162.977966 291.397278 C 163.177277 290.490723 163.585587 289.27182 163.86734 289.053314 C 168.657028 285.338959 169.448547 285.777863 172.294785 285.375427 Z M 176.923569 277.57486 C 176.768311 276.792847 175.384537 275.008423 175.321274 275.508667 C 175.112366 275.821106 174.767349 276.539795 174.403214 276.070221 C 173.830139 275.913055 174.320801 275.382172 174.602539 275.163605 C 174.311203 274.788025 173.893387 275.412781 173.684479 275.725159 C 173.193771 276.256042 173.130554 276.756348 173.630783 276.81958 C 173.557968 276.725708 173.902969 276.006958 174.12146 276.288727 C 174.767349 276.539795 174.349503 277.164642 174.06778 277.383118 C 173.786026 277.601624 176.005493 278.136383 176.923569 277.57486 Z M 172.329437 275.723267 C 172.256607 275.629364 172.256607 275.629364 172.256607 275.629364 C 171.974808 275.847839 171.557007 276.472656 171.420883 276.878937 C 172.057251 276.53595 172.066818 277.130005 172.55748 276.599213 C 172.693573 276.192871 172.547913 276.004974 172.329437 275.723267 Z M 172.956177 274.786072 C 173.101807 274.973877 173.529251 274.943176 173.665298 274.536926 C 174.15596 274.005981 173.655731 273.94281 173.29158 273.473206 C 173.155487 273.879517 173.01944 274.285797 172.810516 274.598206 Z"/>
        </g>
        <g id="g3-copy">
            <path id="path3-copy" fill="#000000" fill-rule="evenodd" stroke="none" d="M 126.452354 295.391479 C 126.330757 295.649078 130.944244 299.1073 133.457718 300.645508 C 135.638596 301.980194 140.540283 303.813293 140.501099 304.042358 C 156.504776 310.947754 183.080292 314.9841 208.539932 315.015961 C 233.999588 315.047852 260.585571 310.757813 276.606476 303.892456 C 276.576385 303.763794 281.798767 301.373199 283.372437 300.645508 C 286.295044 299.294098 286.641815 299.368378 287.925934 299.944977 C 290.340607 301.029236 285.223663 308.29071 282.833496 318.151367 C 282.349518 321.032959 279.93399 331.918335 274.805878 335.274506 C 260.54245 345.184387 221.790298 346.897247 208.660172 346.880798 C 195.53006 346.864349 156.621841 345.374512 143.024139 335.109558 C 137.424835 331.099487 134.558823 318.125824 133.601898 315.082306 C 132.226456 308.682037 130.001694 304.323303 128.904236 301.346069 C 126.953239 296.053223 126.54982 295.18512 126.452354 295.391479 Z"/>
            <path id="Est-Facere" fill="#ffffff" fill-rule="evenodd" stroke="none" d="M 209.765076 340.607727 C 207.465897 340.633362 205.909454 339.293091 205.888184 337.384766 C 205.866882 335.47644 207.256287 334.197083 209.596848 333.75708 L 212.625 333.194183 C 212.566452 332.068115 211.685028 331.364441 210.144547 331.381592 C 208.328156 331.401855 207.094254 332.036743 206.142426 333.289063 C 206.107285 330.13916 207.997742 328.60083 211.009735 328.5672 C 213.998672 328.533844 215.787537 330.099792 215.821381 333.134735 L 215.860596 336.721985 C 215.868301 337.411743 216.19519 337.845551 216.907928 337.837616 C 217.321777 337.833038 217.642227 337.713348 217.91478 337.411346 C 217.938416 339.526642 216.731705 340.53009 215.214233 340.546997 C 214.087601 340.55957 213.369186 340.107239 212.991821 339.26062 C 212.447479 339.933533 211.236572 340.591309 209.765076 340.607727 Z M 223.941986 340.147308 C 220.813797 340.183899 218.517975 338.102997 218.3246 334.566589 C 218.129959 331.007904 220.468994 328.301392 224.073532 328.104279 C 225.726593 328.013824 227.009827 328.334106 227.94664 329.042816 L 228.131317 332.418823 C 227.462463 331.557343 226.278244 330.95343 224.762909 331.036285 C 222.811371 331.143005 221.609009 332.314972 221.709457 334.151703 C 221.806137 335.919556 223.136444 337.089142 225.38649 336.966095 C 226.786972 336.889496 227.928024 336.274597 228.539871 335.250916 C 228.714386 338.44223 227.140945 339.979004 224.248093 340.137177 C 224.145477 340.142792 224.042908 340.146118 223.941986 340.147308 Z M 198.458206 340.011963 L 195.103714 339.881683 L 195.178345 337.974213 L 195.656464 325.682007 L 195.728561 323.798584 L 206.091827 324.200806 L 205.974197 327.211243 L 202.987778 327.094879 L 198.96669 326.939301 L 198.828812 330.499969 L 202.206085 330.631531 L 204.54866 330.722595 L 204.433548 333.709015 L 202.089706 333.61792 L 198.712448 333.486389 L 198.53157 338.12854 L 198.458206 340.011963 Z M 184.142151 339.425049 C 183.993454 339.422485 183.841507 339.414307 183.685532 339.39975 C 181.23587 339.171051 179.996078 337.600647 180.224777 335.15097 L 180.686462 330.205261 L 178.421051 329.994019 L 184.433075 324.458862 L 184.129501 327.709625 L 188.549042 328.121979 L 188.288467 330.914856 L 183.868942 330.502502 L 183.523621 334.211182 C 183.393219 335.607697 184.123611 336.438232 185.428543 336.560059 C 186.527466 336.662689 187.437363 336.309387 188.005142 335.669586 C 187.772675 338.159302 186.372482 339.463623 184.142151 339.425049 Z M 235.599228 339.254303 C 232.259842 339.309387 229.975952 337.303009 229.649185 333.891144 C 229.305054 330.297638 231.220688 327.619965 234.722656 327.284607 C 238.522156 326.920776 240.627304 329.12088 240.950989 333.224548 L 233.007477 333.986023 C 233.36911 335.5914 235.145096 336.274994 237.319489 336.066772 C 238.898819 335.915527 240.316803 335.295105 240.862457 334.480591 C 241.114563 337.112793 239.485458 338.909485 236.281006 339.216339 C 236.049255 339.238556 235.821854 339.25061 235.599228 339.254303 Z M 173.48671 338.225922 C 173.257721 338.220642 173.022598 338.201935 172.783417 338.169006 C 171.120605 337.940094 169.817047 337.295441 168.864792 336.119873 L 169.294846 332.99939 C 170.14743 334.393311 171.765854 335.451538 173.018692 335.624054 C 173.793121 335.730652 174.246902 335.468689 174.325333 334.899261 C 174.394257 334.398132 174.177841 334.113251 173.662521 333.810181 L 171.695618 332.587036 C 170.328735 331.725769 169.753815 330.672668 169.957657 329.192078 C 170.236725 327.164764 172.237106 325.954346 174.742737 326.299255 C 176.177841 326.496826 177.227585 326.966705 178.126328 327.856354 L 177.72789 330.749146 C 177.115005 329.80603 175.617249 328.879639 174.523911 328.729126 C 173.840561 328.63504 173.389984 328.87561 173.320999 329.37674 C 173.25827 329.832336 173.517105 330.145721 174.052109 330.47467 L 175.97728 331.668732 C 177.324509 332.504089 177.872208 333.576752 177.662109 335.102905 C 177.392136 337.064026 175.700424 338.277252 173.48671 338.225922 Z M 210.749161 338.136108 C 211.622879 338.126404 212.285614 337.750854 212.669266 337.102722 L 212.6465 335.033356 L 210.741577 335.422943 C 209.594559 335.66568 209.233978 336.290497 209.241409 336.957245 C 209.24884 337.623993 209.806503 338.146637 210.749161 338.136108 Z M 243.525055 338.071625 L 243.28598 336.364014 L 242.229797 328.850555 L 241.94899 326.846954 L 244.84053 326.439667 L 245.112488 328.376221 C 245.340439 326.858185 246.220459 326.013702 247.654922 325.812286 C 248.064789 325.75473 248.435837 325.75 248.656723 325.835052 L 249.079193 328.840424 C 248.793167 328.78772 248.396194 328.773285 247.918015 328.840424 C 246.847839 328.990723 245.939056 329.62973 245.77655 330.95282 L 246.460861 335.825165 L 246.713837 337.62384 L 243.525055 338.071625 Z M 167.144531 337.076141 L 156.979858 334.913177 L 157.377029 333.046204 L 159.93718 321.013275 L 160.3293 319.169067 L 170.495239 321.333313 L 169.867844 324.279236 L 166.921906 323.651855 L 162.986832 322.814484 L 162.29747 326.052612 L 165.602631 326.757141 L 167.919907 327.249207 L 167.297592 330.173645 L 164.958801 329.675262 L 161.67514 328.977051 L 160.889648 332.665466 L 164.488266 333.430725 L 167.771927 334.130219 L 167.144531 337.076141 Z M 255.340408 336.364014 C 252.515549 336.347565 250.441879 334.626434 249.824203 331.604218 C 249.101364 328.067352 250.722366 325.201233 254.169113 324.496796 C 257.908722 323.732483 260.234131 325.697266 260.990692 329.743561 L 253.173645 331.341125 C 253.703278 332.89917 255.541565 333.392548 257.681732 332.955139 C 259.236115 332.637482 260.581116 331.869843 261.037476 331.002136 C 261.566925 333.592834 260.136169 335.551239 256.982239 336.19577 C 256.412018 336.312317 255.863525 336.367065 255.340408 336.364014 Z M 232.792435 331.973572 L 237.415619 331.530853 C 237.288498 330.203308 236.43457 329.245087 234.901016 329.391937 C 233.504852 329.525635 232.74588 330.522827 232.792435 331.973572 Z M 252.746109 329.364105 L 257.29718 328.433136 C 257.030182 327.126495 256.079468 326.265259 254.570084 326.57373 C 253.195892 326.854614 252.546143 327.926453 252.746109 329.364105 Z"/>
            <path id="Audere" fill="#ffffff" fill-rule="evenodd" stroke="none" d="M 48.972923 305.994751 L 48.546654 303.105743 L 46.347008 288.911133 L 49.349861 287.169373 L 60.708595 296.210815 L 62.85638 297.942474 L 59.692886 299.77655 L 57.80946 298.132202 L 56.862057 297.325195 L 51.372425 300.508911 L 51.640583 301.842133 L 52.114918 304.172058 L 48.972923 305.994751 Z M 50.780457 297.42511 L 54.499237 295.267212 L 49.525681 291.000732 L 50.780457 297.42511 Z M 64.757515 295.973022 C 63.469379 295.960999 62.28117 295.210144 61.362545 293.888489 L 58.828964 290.244324 L 57.175751 287.866333 L 59.8004 286.042358 L 63.421787 291.252441 C 64.248512 292.441925 65.344658 292.688568 66.420845 291.940552 C 67.251625 291.363129 67.542786 290.573608 67.312599 289.557495 L 64.871353 286.044891 L 63.21814 283.666901 L 65.860497 281.82901 L 71.136368 289.419617 L 72.330421 291.137329 L 69.686798 292.97522 L 69.01767 292.011383 C 69.045937 293.139771 68.393028 294.29483 67.146896 295.16095 C 66.339737 295.721985 65.53038 295.980225 64.757515 295.973022 Z M 75.746895 287.852417 C 74.067993 287.821106 72.362457 286.925781 71.036438 285.067139 C 68.833 281.978638 69.465736 278.787476 71.899094 277.051514 C 73.022163 276.250183 74.275177 275.949158 75.44838 276.326721 L 73.311981 273.331451 L 71.629677 270.973694 L 74.250526 269.104187 L 82.783493 281.065002 L 83.999054 282.767548 L 81.378197 284.637054 L 80.710335 283.70105 C 80.685593 284.933228 80.006897 286.039276 78.883827 286.840515 C 77.971329 287.491516 76.947342 287.837402 75.908806 287.852417 C 75.854706 287.85321 75.801048 287.853455 75.746895 287.852417 Z M 76.247795 284.509308 C 76.781006 284.499268 77.308029 284.321167 77.778313 283.985657 C 78.695541 283.331299 79.141869 282.334961 78.893951 281.156067 L 77.278679 278.890656 C 76.244614 278.272583 75.156334 278.371643 74.239143 279.026001 C 72.985023 279.920746 72.661453 281.564331 73.769867 283.11792 C 74.454277 284.07724 75.359131 284.526001 76.247795 284.509308 Z M 87.767166 279.282776 C 85.993629 279.247131 84.36692 278.305023 83.166756 276.496216 C 81.170876 273.48819 81.598923 270.224548 84.530312 268.27948 C 87.710762 266.169159 90.603592 267.118988 92.821678 270.586639 L 86.173401 274.997314 C 87.248466 276.243225 89.137085 276.011536 90.957222 274.803772 C 92.279236 273.926575 93.238693 272.710663 93.336487 271.735168 C 94.798447 273.938538 94.2062 276.291229 91.523895 278.071014 C 90.262955 278.907654 88.980637 279.30719 87.767166 279.282776 Z M 98.09375 273.476929 L 97.231094 271.983093 L 93.432617 265.41449 L 92.420708 263.662628 L 94.94796 262.20166 L 95.926987 263.892822 C 95.568687 262.400177 96.068085 261.288666 97.322166 260.563629 C 97.680481 260.356506 98.021469 260.212219 98.258186 260.208191 L 99.777321 262.835388 C 99.492424 262.89389 99.118904 263.03009 98.700897 263.271759 C 97.765274 263.812683 97.163521 264.745667 97.509369 266.03302 L 99.972115 270.293182 L 100.880302 271.865448 L 98.09375 273.476929 Z M 85.036263 273.323853 L 88.905571 270.756134 C 88.168221 269.644897 86.963783 269.202362 85.680092 270.054138 C 84.511391 270.82962 84.311996 272.065979 85.036263 273.323853 Z M 108.230591 267.654602 C 106.076462 267.627197 104.261734 266.383209 103.221619 264.059814 C 101.74662 260.764893 102.704872 257.61438 105.91584 256.177002 C 109.399612 254.617462 112.097725 256.030029 113.716431 259.814819 L 106.434448 263.074463 C 107.290367 264.47998 109.190392 264.561493 111.18412 263.668945 C 112.632217 263.020691 113.778587 261.979126 114.035187 261.032898 C 115.115562 263.44632 114.144989 265.668976 111.206886 266.984222 C 110.250687 267.412292 109.319328 267.63269 108.440567 267.653351 C 108.370384 267.655029 108.300087 267.655487 108.230591 267.654602 Z M 105.585701 261.237823 L 109.825623 259.339233 C 109.280708 258.122009 108.165627 257.487885 106.759521 258.11734 C 105.479355 258.690399 105.077774 259.878052 105.585701 261.237823 Z"/>
            <path id="Verum" fill="#ffffff" fill-rule="evenodd" stroke="none" d="M 360.603455 304.875549 L 357.961121 303.037659 L 358.94519 301.622223 L 361.636871 297.751648 C 362.411438 296.637878 362.279175 295.537842 361.240967 294.815857 C 360.466949 294.277649 359.592896 294.286255 358.773163 294.780426 L 355.675446 299.235382 L 354.638245 300.726685 L 352.014862 298.90271 L 352.998932 297.486023 L 355.690613 293.61673 C 356.465179 292.50296 356.333069 291.402466 355.31369 290.693542 C 354.520844 290.142181 353.710663 290.139771 352.826904 290.645508 L 349.768402 295.043518 L 348.691986 296.591736 L 346.049622 294.753845 L 347.033691 293.33844 L 350.867584 287.82605 L 352.520813 285.446777 L 355.164429 287.284668 L 354.520599 288.210571 C 355.606354 287.817322 356.814636 288.013092 357.966156 288.813934 C 359.212128 289.680389 359.784485 290.750366 359.786346 291.955933 C 360.896606 291.607758 362.250549 291.79306 363.53421 292.68576 C 365.969452 294.379211 366.26181 296.739105 364.791534 298.853394 L 361.640686 303.384216 L 360.603455 304.875549 Z M 343.564117 292.818573 L 340.95462 290.933899 L 341.641479 289.983948 C 340.586121 290.384613 339.280579 290.15036 338.050446 289.261719 C 335.925659 287.726685 335.825165 285.46994 337.333252 283.382477 L 339.931335 279.785126 L 341.628815 277.436218 L 344.21933 279.308258 L 340.503082 284.452576 C 339.654724 285.626801 339.78476 286.742371 340.847107 287.509827 C 341.667236 288.102264 342.509674 288.11438 343.39209 287.560425 L 345.896576 284.093353 L 347.592773 281.745728 L 350.202271 283.630402 L 344.788513 291.122375 L 343.564117 292.818573 Z M 330.46109 283.488739 L 327.803558 281.673615 L 328.774994 280.249329 L 333.054108 273.983063 L 334.195038 272.312134 L 336.607208 273.959045 L 335.504211 275.573029 C 336.694794 274.604065 337.914063 274.572815 339.110413 275.389648 C 339.452209 275.622986 339.729156 275.868622 339.835205 276.080261 L 338.12381 278.585999 C 337.947815 278.354462 337.665039 278.07785 337.266205 277.805573 C 336.373749 277.196228 335.27179 277.056793 334.260834 277.92572 L 331.485657 281.988586 L 330.46109 283.488739 Z M 324.021515 278.674561 C 323.068939 278.680786 322.010803 278.358185 320.8909 277.682861 C 317.701019 275.75946 316.848938 272.586823 318.736816 269.456024 C 320.600891 266.364563 323.733429 265.35376 326.746094 267.170349 C 330.014771 269.141296 330.395142 272.163696 328.210846 275.65271 L 321.377899 271.531708 C 320.712097 273.036621 321.729645 274.643677 323.600311 275.771637 C 324.958923 276.590881 326.468994 276.938171 327.392456 276.608978 C 326.581757 277.953491 325.413788 278.665375 324.021515 278.674561 Z M 326.380554 272.185669 C 327.069244 271.043579 326.953552 269.765808 325.634247 268.970306 C 324.433075 268.246033 323.230438 268.594391 322.403717 269.787415 L 326.380554 272.185669 Z M 309.775055 271.237 L 306.655823 269.875977 L 307.327484 255.518173 L 307.466614 252.668365 L 310.817322 254.130585 L 310.635162 256.560455 L 309.966034 266.603699 L 316.921692 259.228088 L 318.53064 257.49646 L 321.839569 258.940979 L 319.620972 261.208923 L 309.775055 271.237 Z"/>
        </g>
        <g id="g2">
            <path id="path5-copy-2" fill="#000000" stroke="none" d="M 184.204605 131.321243 C 186.811676 131.324554 189.418762 131.327789 192.025833 131.3311 C 196.629333 133.248611 197.667984 138.722122 199.832458 143.072678 C 199.831665 143.724518 199.830795 144.376282 199.830002 145.027908 C 197.87851 146.33728 193.678452 145.389725 190.709778 145.668381 C 186.568527 143.365662 181.73555 136.008194 184.204605 131.321243 Z M 156.175705 131.286179 C 158.782745 131.289413 161.389862 131.292725 163.996948 131.295959 C 168.292984 133.636856 172.883606 141.49646 171.153946 145.64389 C 168.329575 145.640366 165.505264 145.636841 162.680908 145.633316 C 158.545029 143.327927 153.880692 135.802185 156.175705 131.286179 Z M 211.578995 131.355515 C 214.186142 131.358826 216.793152 131.362061 219.400299 131.365311 C 227.957611 133.448059 225.992157 145.932556 218.73053 145.703445 C 213.245071 145.530991 211.750366 137.705078 210.274658 132.00563 C 211.032211 132.112473 211.431747 131.863129 211.578995 131.355515 Z M 137.923645 133.218658 C 141.908203 134.904678 143.659744 141.492432 143.774887 144.957779 C 136.477325 145.296341 134.756424 138.075745 137.923645 133.218658 Z"/>
            <path id="path5-copy" fill="#000000" stroke="none" d="M 238.446198 131.321243 C 241.053268 131.324554 243.660355 131.327789 246.267426 131.3311 C 250.870926 133.248611 251.909561 138.722122 254.074051 143.072678 C 254.073257 143.724518 254.072388 144.376282 254.071594 145.027908 C 252.120102 146.33728 247.920029 145.389725 244.951355 145.668381 C 240.81012 143.365662 235.977142 136.008194 238.446198 131.321243 Z M 210.417297 131.286179 C 213.024338 131.289413 215.631454 131.292725 218.238525 131.295959 C 222.534576 133.636856 227.125183 141.49646 225.395538 145.64389 C 222.571152 145.640366 219.746841 145.636841 216.922501 145.633316 C 212.786621 143.327927 208.122284 135.802185 210.417297 131.286179 Z M 265.820587 131.355515 C 268.427734 131.358826 271.034729 131.362061 273.641876 131.365311 C 282.199219 133.448059 280.233734 145.932556 272.972107 145.703445 C 267.486664 145.530991 265.991943 137.705078 264.516266 132.00563 C 265.273804 132.112473 265.67334 131.863129 265.820587 131.355515 Z M 192.165237 133.218658 C 196.149796 134.904678 197.901337 141.492432 198.016464 144.957779 C 190.718918 145.296341 188.998001 138.075745 192.165237 133.218658 Z"/>
        </g>
        <g id="g3">
            <path id="Crest-copy-7" fill="#000000" fill-rule="evenodd" stroke="none" d="M 244.468277 73.295197 C 233.226532 69.175507 224.643341 66.992279 222.838501 55.504089 C 224.020386 51.787048 226.29361 43.77829 223.758179 38.879364 C 223.216721 35.432831 222.765488 32.56073 224.939987 35.16214 C 227.565643 40.635437 230.37175 47.25766 231.544907 54.725006 C 232.447281 60.469116 236.705887 65.097198 238.519394 65.40097 C 242.507309 68.306122 233.809631 57.900787 239.340195 59.386169 C 242.967194 59.99353 245.863449 67.190186 248.218399 70.940338 C 251.845322 71.547516 261.363861 75.938171 262.717499 84.55426 C 263.349182 88.575165 260.534424 93.137512 255.364777 93.949677 C 248.471878 95.032593 235.900772 89.944366 229.828674 85.012512 C 234.08728 89.640778 241.702026 93.153107 245.960785 97.781311 C 250.03894 101.260834 252.213348 103.862213 255.659882 103.320679 C 257.382904 103.050049 258.925629 101.630463 258.654938 99.907288 C 258.564728 99.332764 258.293945 97.609558 259.927155 96.764435 C 259.927155 96.764435 261.740479 97.068115 261.830719 97.642548 C 262.19162 99.940125 261.920929 98.216919 265.457703 98.249908 C 270.988434 99.735382 272.9823 101.187897 271.710266 104.330597 C 271.529877 103.181915 270.077301 105.17572 272.161499 107.202667 C 274.426147 110.37851 276.510254 112.405304 275.23822 115.548065 C 274.05658 119.265289 274.877289 113.250519 271.791931 116.089539 C 270.248962 117.509125 277.773651 120.447021 271.963562 128.422928 C 270.420929 129.842361 271.873352 127.84848 271.602661 126.12529 C 269.518463 124.098343 266.252472 125.788544 268.33667 127.815414 C 268.878113 131.2621 267.245087 132.107162 267.515869 133.830276 C 268.057312 137.276718 272.595276 132.443756 271.323303 135.586533 C 268.237793 138.425537 266.604889 139.270767 264.61087 137.818268 C 258.989899 135.758423 260.081665 131.46666 259.720642 129.169022 C 258.177856 130.588699 257.266815 136.029022 253.82019 136.570404 C 250.373825 137.111954 250.193359 135.963135 246.837143 137.078964 C 245.294327 138.498627 250.915283 140.558563 247.288376 139.950958 C 241.667496 137.89119 242.307846 130.727524 247.477402 129.915359 C 252.647125 129.10321 251.014328 129.948273 252.73735 129.677582 C 254.460693 129.406815 252.556885 128.528839 252.556885 128.528839 C 249.110443 129.070313 250.202179 124.778549 245.032379 125.59079 C 243.309113 125.861481 243.850494 129.308014 243.399338 126.435928 C 242.767639 122.4151 244.039764 119.272247 249.209488 118.460098 C 256.102295 117.377258 252.015427 125.08223 257.455841 125.993423 C 259.269409 126.297028 261.362091 117.139389 261.091492 115.416351 C 260.549927 111.969757 260.279327 110.246643 258.556061 110.517334 C 256.742737 110.213562 255.470612 113.356445 252.024246 113.897827 C 248.577866 114.43927 232.740616 111.041412 230.385818 107.291351 C 225.856445 100.939758 225.856445 100.939758 222.960098 93.743256 C 222.779648 92.594269 222.328491 89.72226 220.424606 88.844299 C 218.340332 86.817352 210.54512 82.156189 207.008438 82.123199 C 203.561905 82.664581 203.742447 83.813416 200.115463 83.206055 C 190.867676 80.538849 188.332214 75.63974 186.157883 73.03833 C 183.072388 75.877441 183.252838 77.026489 181.890579 79.594757 C 181.980804 80.169189 178.80513 82.433838 178.624664 81.285095 C 178.444168 80.136139 174.997681 80.677673 175.178177 81.82666 C 175.358673 82.975311 175.719589 85.272858 174.267105 87.266968 C 172.724335 88.686401 172.904755 89.835236 172.724335 88.686401 C 170.820724 87.80835 170.640228 86.659454 169.097382 88.079132 C 165.831467 89.769257 171.271881 90.680359 168.457031 95.242554 C 167.184998 98.385406 170.811874 98.992767 172.535309 98.722015 C 171.172836 101.290497 165.642197 99.804932 163.558167 97.778137 C 161.383667 95.176758 160.752014 91.155762 159.119019 92.000977 C 159.209259 92.575439 161.8349 98.048828 158.659134 100.313477 C 153.669968 102.274445 154.03096 104.572083 155.844421 104.875763 C 154.482193 107.444092 148.770966 104.809784 147.958817 99.640167 C 147.056396 93.895996 157.034836 89.974121 155.131149 89.096008 C 151.684662 89.637451 153.227463 88.217865 151.3237 87.339752 C 147.786972 87.306824 147.967468 88.455658 148.238205 90.178925 C 143.068604 90.991058 143.077087 79.806427 149.970078 78.723572 C 155.139755 77.911346 152.59581 84.197052 157.855637 83.959351 C 159.669174 84.263092 159.398453 82.539673 164.116898 78.855438 C 167.112076 75.442047 171.379364 68.885742 177.369858 62.058807 C 180.184692 57.496521 187.898361 50.398743 188.899704 45.532776 C 187.356903 46.952271 182.548309 50.062073 181.637238 55.502563 C 180.274933 58.070801 175.835785 52.293823 178.470123 46.582642 C 182.565521 27.693085 194.5952 29.334747 190.730469 23.467529 C 191.181625 26.339447 185.651016 24.853973 183.837601 24.550385 C 182.024063 24.246704 178.487427 24.213623 176.944656 25.633209 C 175.401932 27.052826 173.678665 27.323578 171.865128 27.019745 C 171.504166 24.722198 171.413971 24.147736 171.233521 22.998932 C 171.053009 21.850098 176.222778 21.037872 177.946045 20.767273 C 179.669144 20.496399 181.482681 20.800171 183.296097 21.103912 C 183.296097 21.103912 184.838821 19.684326 184.658401 18.535614 C 182.483994 15.934204 182.032761 13.062286 180.128983 12.184082 C 178.044846 10.157135 178.496033 13.029205 173.326401 13.84137 C 173.326401 13.84137 169.970123 14.957275 169.33844 10.93631 C 168.977432 8.638733 168.887207 8.064209 168.706711 6.915466 C 170.249512 5.495972 168.165329 3.469025 170.069016 4.347137 C 171.882553 4.650757 176.96196 3.264221 176.96196 3.264221 C 178.233948 0.12146 181.770721 0.154358 187.301315 1.639923 C 194.735718 4.003357 196.819824 6.030304 200.266449 5.488861 C 202.079819 5.792542 201.628586 2.920532 201.899323 4.643951 C 206.428574 10.995148 199.44548 11.503784 203.252975 13.259888 C 207.150497 15.590515 213.85437 24.543335 214.666519 29.713074 C 217.193298 45.796509 210.571167 48.602631 211.924698 57.218628 L 213.18808 65.260437 C 214.451462 73.302155 219.440796 71.341278 221.795517 75.091309 C 224.150391 78.841522 227.506699 77.725708 233.398254 81.50882 C 239.10936 84.142944 247.265732 91.101929 255.307373 89.838531 C 258.753906 89.29715 260.11618 86.72876 259.845398 85.005493 C 257.974731 80.590759 251.902481 75.658905 244.468277 73.295197 Z M 148.46196 35.405243 C 145.196045 37.095459 145.015549 35.946716 143.382507 36.791687 C 138.303024 38.178375 145.647278 39.967529 142.110397 39.93454 C 134.766373 38.145294 135.135986 29.258514 142.028931 28.175598 C 143.752197 27.904907 143.752197 27.904907 143.842438 28.479279 L 143.752197 27.904907 C 143.661926 27.330444 143.661926 27.330444 143.571701 26.756073 C 140.125092 27.297546 139.493439 23.276642 137.770248 23.547333 C 136.047058 23.818024 136.58844 27.264465 136.227524 24.966858 C 133.872559 21.216797 134.873871 16.350739 140.043625 15.538605 C 145.213272 14.726379 144.753433 23.03894 148.199921 22.497559 C 149.923187 22.226715 146.115646 20.470551 148.930496 15.908173 C 148.840225 15.333893 148.569489 13.610626 146.846298 13.881226 C 146.846298 13.881226 145.303543 15.300812 145.123032 14.152008 C 146.395081 11.009399 148.028107 10.164154 149.751297 9.893402 C 153.197784 9.35202 155.372208 11.9534 155.913589 15.39978 C 156.455048 18.846069 151.556137 21.381561 153.549942 22.834137 C 155.904984 26.58429 154.001129 25.706146 154.452286 28.578308 C 158.801361 33.780945 163.150269 38.983582 168.951599 42.19223 C 170.855286 43.070374 174.933319 46.549805 176.476074 45.130219 C 174.293137 53.71347 178.010193 54.895203 178.461426 57.767212 C 171.568527 58.850128 164.22438 57.060974 159.965775 52.432648 C 159.785278 51.283813 163.412155 51.891266 163.05127 49.593689 C 161.147583 48.715576 156.06813 50.10202 151.809525 45.473907 C 149.905807 44.595703 155.165787 44.35791 153.081604 42.331146 C 152.991333 41.756622 151.268066 42.027313 147.280151 39.122467 C 145.466782 38.818726 148.913147 38.277252 148.552185 35.979614 C 148.552185 35.979614 148.642426 36.553986 148.46196 35.405243 Z M 217.732971 90.444183 C 219.456329 90.173492 218.274445 93.890656 218.274445 93.890656 C 218.725586 96.762817 211.381699 94.973572 210.921646 103.286072 C 211.102188 104.434875 214.909653 106.191071 220.079285 105.378906 C 223.525818 104.837433 220.530441 108.251068 221.071899 111.697357 C 221.884125 116.867157 218.979065 120.854919 217.255875 121.125687 C 217.3461 121.700058 218.798599 119.706177 215.442535 120.822083 C 210.362961 122.208527 214.531342 126.262421 204.37236 129.035538 C 202.468765 128.157501 205.915329 127.616028 204.011444 126.7379 C 200.474838 126.704834 200.925995 129.57692 196.207458 133.261246 C 192.941711 134.951523 187.681564 135.189301 189.31459 134.344162 C 192.670975 133.228256 188.41214 128.599915 188.863373 131.472 C 187.320602 132.891663 188.042557 137.486938 181.149704 138.569778 C 177.703125 139.111237 177.251968 136.239151 175.619095 137.084305 C 170.449295 137.896454 174.527557 141.375885 172.623795 140.497849 C 166.641968 136.14035 172.632492 129.313339 176.078857 128.771957 C 181.248611 127.959808 181.429031 129.108475 184.695038 127.41835 C 182.97197 127.689041 184.604675 126.843826 181.15831 127.385284 C 177.711975 127.926666 177.170517 124.480209 175.447174 124.750977 C 172.000748 125.29245 174.355759 129.042648 174.084946 127.319473 C 170.006836 123.839951 172.731415 118.703293 176.177902 118.161835 C 183.070679 117.078995 180.616882 123.938828 189.233063 122.585129 C 196.126007 121.502213 196.035736 120.927917 199.121231 118.088821 C 205.653214 114.708252 210.371536 111.024109 206.65448 109.842377 C 201.304214 109.505554 192.507584 109.71051 190.973541 99.945435 C 188.438095 95.046509 193.066422 90.787964 199.869141 89.130615 C 203.315552 88.589233 210.208542 87.506287 215.55864 87.842896 C 215.55864 87.842896 217.46228 88.721008 217.732971 90.444183 Z"/>
            <path id="Shape-copy" fill="#000000" stroke="none" d="M 162.194321 12.957916 C 162.194321 12.957916 172.986298 17.483246 179.314255 18.616455 C 184.286087 19.506714 188.449326 19.418243 188.499054 20.075256 C 185.905823 20.127411 179.894714 21.69809 175.340973 21.070862 C 167.587234 20.00296 162.194321 12.957916 162.194321 12.957916 Z"/>
            <path id="Shape" fill="#ffffff" stroke="none" d="M 183.527008 4.522034 C 187.355164 5.25116 189.041809 8.090973 189.154633 9.584229 C 182.14595 9.72522 180.488297 6.612854 183.527008 4.522034 Z"/>
        </g>
    </g>
</svg>
